<svg width="244" height="150" viewBox="0 0 244 150" fill="none" xmlns="http://www.w3.org/2000/svg">
<path d="M242.614 117.995H0.635114C0.466672 117.995 0.305137 117.928 0.18603 117.808C0.0669229 117.689 0 117.526 0 117.357C0 117.188 0.0669229 117.026 0.18603 116.906C0.305137 116.787 0.466672 116.719 0.635114 116.719H242.614C242.782 116.719 242.944 116.787 243.063 116.906C243.182 117.026 243.249 117.188 243.249 117.357C243.249 117.526 243.182 117.689 243.063 117.808C242.944 117.928 242.782 117.995 242.614 117.995Z" fill="#3F3D56"/>
<path d="M126.425 34.4418C135.896 34.4418 143.573 26.7317 143.573 17.2209C143.573 7.71006 135.896 0 126.425 0C116.955 0 109.277 7.71006 109.277 17.2209C109.277 26.7317 116.955 34.4418 126.425 34.4418Z" fill="#2F2E41"/>
<path d="M110.132 127.77L109.678 119.965L139.443 114.489L140.114 126.01L110.132 127.77Z" fill="#FFB8B8"/>
<path d="M111.574 114.258L112.45 129.313L103.011 129.867L101.583 105.333C102.823 105.261 104.065 105.434 105.238 105.843C106.41 106.252 107.492 106.889 108.419 107.718C109.347 108.547 110.103 109.551 110.644 110.673C111.186 111.795 111.501 113.013 111.574 114.258Z" fill="#2F2E41"/>
<path d="M123.078 127.699L118.134 133.739L92.5793 117.463L99.8762 108.548L123.078 127.699Z" fill="#FFB8B8"/>
<path d="M112.884 136.636L122.419 124.986L129.723 131.015L114.184 150C113.225 149.208 112.431 148.235 111.846 147.134C111.262 146.034 110.899 144.829 110.778 143.588C110.657 142.347 110.781 141.095 111.142 139.902C111.504 138.709 112.095 137.599 112.884 136.636Z" fill="#2F2E41"/>
<path d="M108.85 99.6069L105.472 115.602C105.394 115.971 105.398 116.352 105.484 116.718C105.57 117.085 105.736 117.427 105.97 117.722C106.204 118.016 106.499 118.255 106.836 118.421C107.172 118.587 107.541 118.677 107.916 118.683L141.131 119.221C141.505 119.227 141.876 119.15 142.218 118.995C142.559 118.84 142.862 118.611 143.105 118.325C143.348 118.039 143.525 117.703 143.623 117.34C143.721 116.977 143.739 116.597 143.674 116.226L140.768 99.6929C140.664 99.1023 140.357 98.5673 139.899 98.1818C139.442 97.7963 138.864 97.585 138.266 97.585H111.335C110.753 97.585 110.189 97.7859 109.736 98.1539C109.284 98.522 108.971 99.0349 108.85 99.6069Z" fill="#2F2E41"/>
<path d="M114.358 105.239C114.358 105.239 81.9674 84.8288 75.6162 95.6716C72.4406 101.093 74.0284 106.355 76.4101 110.262C78.6203 113.819 81.793 116.67 85.5573 118.484L111.818 131.389L121.344 121.184L114.993 115.444L114.358 105.239Z" fill="#2F2E41"/>
<path d="M130.871 102.05C130.871 102.05 172.789 89.9312 164.532 112.892C156.276 135.854 125.155 126.924 125.155 126.924L121.979 117.357L132.776 109.703L130.871 102.05Z" fill="#2F2E41"/>
<path d="M126.64 36.8185C135.255 36.8185 142.239 29.8049 142.239 21.1532C142.239 12.5015 135.255 5.48795 126.64 5.48795C118.025 5.48795 111.041 12.5015 111.041 21.1532C111.041 29.8049 118.025 36.8185 126.64 36.8185Z" fill="#FFB8B8"/>
<path d="M127.458 104.581C120.976 104.483 114.527 103.629 108.241 102.039L108.055 101.987L99.3506 61.7767C98.5675 58.2433 99.0999 54.5441 100.847 51.378C102.595 48.2119 105.436 45.7979 108.835 44.5919C119.333 40.8092 130.775 40.5797 141.416 43.9385H141.416C144.986 45.094 147.991 47.5588 149.832 50.8412C151.673 54.1235 152.213 57.9822 151.346 61.6472L141.623 101.954L141.486 102.019C137.446 103.941 132.393 104.581 127.458 104.581Z" fill="#CCCCCC"/>
<path d="M115.765 107.705C116.081 106.822 116.586 106.021 117.244 105.355C117.902 104.69 118.698 104.178 119.574 103.855C120.451 103.532 121.387 103.406 122.317 103.486C123.248 103.565 124.149 103.849 124.959 104.317L142.098 89.3761L143.649 101.117L127.135 113.505C126.263 114.818 124.941 115.765 123.421 116.165C121.9 116.565 120.286 116.391 118.885 115.676C117.483 114.962 116.391 113.755 115.817 112.286C115.242 110.817 115.223 109.187 115.765 107.705Z" fill="#FFB8B8"/>
<path d="M132.112 110.964C131.833 110.963 131.555 110.922 131.288 110.842C130.854 110.715 130.457 110.486 130.13 110.174C129.803 109.861 129.555 109.474 129.407 109.046L127.338 103.16C127.144 102.616 127.12 102.026 127.267 101.467C127.415 100.909 127.728 100.409 128.165 100.033L151.517 85.9537L142.312 44.7122L142.546 44.6555C142.641 44.6318 152.073 42.4761 155.938 52.8262C158.644 60.0751 168.66 75.8366 167.954 86.4875C167.819 88.618 166.974 90.6409 165.554 92.2295C164.134 93.8182 162.222 94.8798 160.128 95.2431L133.842 110.367C133.346 110.753 132.738 110.963 132.112 110.964Z" fill="#CCCCCC"/>
<path d="M134.731 106.306C134.415 105.423 133.91 104.621 133.252 103.956C132.593 103.291 131.798 102.779 130.922 102.456C130.045 102.133 129.109 102.007 128.178 102.087C127.248 102.166 126.347 102.45 125.537 102.917L108.398 87.977L106.847 99.7182L123.361 112.106C124.233 113.419 125.554 114.366 127.075 114.766C128.596 115.166 130.21 114.992 131.611 114.277C133.013 113.562 134.104 112.356 134.679 110.887C135.254 109.418 135.272 107.788 134.731 106.306Z" fill="#FFB8B8"/>
<path d="M120.104 110.964C119.478 110.963 118.869 110.753 118.374 110.367L90.1824 96.5187C88.0877 96.1554 86.176 95.0938 84.7561 93.5051C83.3361 91.9165 82.4908 89.8936 82.3566 87.7631C81.65 77.1122 93.5711 60.0751 96.2776 52.8262C100.142 42.4761 109.574 44.6312 109.669 44.6555L109.904 44.7122L98.7928 87.2293L124.051 100.033C124.487 100.409 124.801 100.909 124.948 101.467C125.096 102.025 125.071 102.616 124.878 103.16L122.809 109.046C122.661 109.474 122.413 109.861 122.085 110.174C121.758 110.486 121.361 110.715 120.927 110.842C120.66 110.922 120.383 110.963 120.104 110.964Z" fill="#CCCCCC"/>
<path d="M153.735 117.357H97.21C96.0313 117.356 94.9013 116.885 94.0678 116.048C93.2344 115.211 92.7655 114.076 92.7642 112.892V81.6397C92.7655 80.456 93.2344 79.3213 94.0678 78.4843C94.9013 77.6473 96.0313 77.1764 97.21 77.175H153.735C154.914 77.1764 156.044 77.6473 156.877 78.4843C157.711 79.3213 158.18 80.456 158.181 81.6397V112.892C158.18 114.076 157.711 115.211 156.877 116.048C156.044 116.885 154.914 117.356 153.735 117.357Z" fill="#0DD5EB"/>
<path d="M125.473 101.093C127.577 101.093 129.283 99.3797 129.283 97.2662C129.283 95.1526 127.577 93.4393 125.473 93.4393C123.368 93.4393 121.662 95.1526 121.662 97.2662C121.662 99.3797 123.368 101.093 125.473 101.093Z" fill="white"/>
<path d="M110.885 20.5156C109.96 18.1607 111.477 15.3542 113.728 14.2134C115.978 13.0726 118.693 13.2896 121.1 14.0415C123.123 14.6733 125.019 15.6525 126.992 16.4259C128.938 17.2917 131.063 17.6718 133.186 17.5337C135.291 17.295 137.386 16.1096 138.247 14.166C139.14 12.1515 138.533 9.693 137.158 7.97369C135.695 6.31153 133.802 5.08949 131.689 4.44352C127.048 2.80152 121.687 2.75352 117.378 5.14033C113.069 7.52714 110.141 12.6092 111.032 17.4692" fill="#2F2E41"/>
<path d="M20.7444 110.544C21.5291 102.058 23.6963 93.7587 27.1594 85.9777C28.1246 83.8123 29.187 81.6946 30.3465 79.6246C30.4047 79.5163 30.4187 79.3896 30.3856 79.2712C30.3525 79.1527 30.2749 79.0519 30.1692 78.9898C30.0634 78.9277 29.9378 78.9093 29.8188 78.9384C29.6998 78.9676 29.5967 79.0421 29.5313 79.1461C25.3146 86.6856 22.3606 94.8699 20.7872 103.372C20.3495 105.746 20.0206 108.137 19.8004 110.544C19.7444 111.152 20.6888 111.148 20.7444 110.544Z" fill="#E6E6E6"/>
<path d="M32.633 81.1451C35.9353 81.1451 38.6123 78.4568 38.6123 75.1405C38.6123 71.8243 35.9353 69.1359 32.633 69.1359C29.3308 69.1359 26.6538 71.8243 26.6538 75.1405C26.6538 78.4568 29.3308 81.1451 32.633 81.1451Z" fill="#0DD5EB"/>
<path d="M21.356 110.704C21.865 105.198 23.2709 99.8142 25.5176 94.7663C26.1438 93.3616 26.833 91.9877 27.5853 90.6448C27.623 90.5746 27.6321 90.4924 27.6106 90.4155C27.5891 90.3387 27.5388 90.2733 27.4702 90.233C27.4016 90.1927 27.3201 90.1808 27.2429 90.1997C27.1657 90.2186 27.0988 90.2669 27.0564 90.3344C24.3209 95.2256 22.4044 100.535 21.3837 106.051C21.0998 107.591 20.8864 109.142 20.7435 110.704C20.7072 111.098 21.3199 111.095 21.356 110.704H21.356Z" fill="#E6E6E6"/>
<path d="M29.0687 91.6312C31.211 91.6312 32.9477 89.8872 32.9477 87.7358C32.9477 85.5844 31.211 83.8403 29.0687 83.8403C26.9264 83.8403 25.1897 85.5844 25.1897 87.7358C25.1897 89.8872 26.9264 91.6312 29.0687 91.6312Z" fill="#0DD5EB"/>
<path d="M20.5829 110.336C17.6124 105.681 15.4234 100.567 14.1032 95.1991C13.7366 93.7047 13.4386 92.1957 13.2092 90.6722C13.196 90.5936 13.1528 90.5231 13.0888 90.4758C13.0248 90.4284 12.945 90.4079 12.8663 90.4185C12.7875 90.4291 12.7159 90.4701 12.6666 90.5327C12.6174 90.5953 12.5942 90.6747 12.6021 90.7541C13.4408 96.3004 15.1816 101.671 17.7548 106.65C18.4743 108.04 19.256 109.395 20.1 110.714C20.3127 111.047 20.7943 110.667 20.5829 110.336Z" fill="#E6E6E6"/>
<path d="M12.5973 91.3578C14.7396 91.3578 16.4763 89.6137 16.4763 87.4623C16.4763 85.3109 14.7396 83.5668 12.5973 83.5668C10.4549 83.5668 8.71826 85.3109 8.71826 87.4623C8.71826 89.6137 10.4549 91.3578 12.5973 91.3578Z" fill="#0DD5EB"/>
<path d="M8.6748 113.783V106.129C8.67566 105.368 8.97705 104.638 9.51285 104.1C10.0486 103.562 10.7751 103.26 11.5328 103.259H29.316C30.0738 103.26 30.8002 103.562 31.336 104.1C31.8718 104.638 32.1732 105.368 32.174 106.129V113.783C32.1732 114.544 31.8718 115.273 31.336 115.811C30.8002 116.349 30.0738 116.652 29.316 116.653H11.5328C10.7751 116.652 10.0486 116.349 9.51285 115.811C8.97705 115.273 8.67566 114.544 8.6748 113.783Z" fill="#F2F2F2"/>
<path d="M199.686 122.715C199.686 126.91 196.299 128.817 192.122 128.817C187.945 128.817 184.559 126.91 184.559 122.715C184.559 118.52 186.239 113.626 192.122 115.314C198.005 112.782 199.686 118.52 199.686 122.715Z" fill="#FF6584"/>
<path d="M191.754 117.279C191.46 117.279 191.175 117.172 190.954 116.977C190.733 116.782 190.59 116.513 190.553 116.22C190.302 114.128 188.922 110.029 188.34 108.364L188.34 108.363C188.281 108.198 188.263 108.02 188.287 107.846C188.312 107.672 188.378 107.507 188.48 107.364C188.577 107.236 188.701 107.131 188.842 107.055C188.983 106.978 189.138 106.933 189.298 106.921C189.458 106.91 189.618 106.932 189.769 106.987C189.919 107.042 190.057 107.129 190.171 107.241C190.274 107.349 190.353 107.477 190.404 107.617C190.456 107.757 190.477 107.906 190.469 108.055C190.355 110.192 191.906 113.646 192.841 115.514C192.929 115.69 192.973 115.885 192.97 116.082C192.967 116.28 192.915 116.473 192.821 116.646C192.727 116.819 192.592 116.966 192.428 117.075C192.265 117.184 192.077 117.252 191.882 117.272C191.839 117.277 191.797 117.279 191.754 117.279Z" fill="#3F3D56"/>
<path d="M197.35 112.564C199.976 110.406 197.916 105.99 194.63 106.838C194.188 106.944 193.78 107.162 193.446 107.472C191.431 109.384 191.118 114.277 191.118 114.277C191.118 114.277 194.678 114.761 197.35 112.564Z" fill="#3F3D56"/>
</svg>
