<svg width="652" height="426" viewBox="0 0 652 426" fill="none" xmlns="http://www.w3.org/2000/svg">
<g clip-path="url(#clip0)">
<path opacity="0.1" d="M337.194 110.678C296.017 117.638 254.898 114.654 215.342 110.314C175.786 105.974 136.329 100.307 95.1346 102.015C68.6353 103.112 39.1243 108.364 20.6215 123.629C2.81102 138.311 0.0358901 158.123 0.00127306 176.009C-0.044883 189.461 1.12056 203.382 10.6518 214.099C17.2752 221.532 27.4699 226.859 35.1491 233.721C61.8677 257.557 53.7442 295.087 36.2107 326.996C27.9834 341.967 17.9213 356.689 12.3192 372.012C6.71697 387.335 5.97271 403.754 16.0001 416.249C25.9352 428.64 45.1534 435.623 65.1909 439.242C105.889 446.594 151.231 442.029 195.103 435.842C292.198 422.101 388.289 400.678 484.172 379.307C519.649 371.395 555.281 363.448 589.46 352.044C608.442 345.695 627.769 337.794 640.03 325.496C655.607 309.913 656 288.6 640.987 275.863C615.798 254.509 558.783 259.247 539.3 234.835C528.58 221.394 533.248 203.139 541.781 187.014C560.076 152.433 595.437 118.267 590.856 83.7896C587.694 60.1274 563.572 40.5455 531.24 35.4437C497.35 30.0995 453.825 40.2339 434.312 64.0461C414.252 88.5797 373.554 104.514 337.194 110.678Z" fill="#00C0FF"/>
<path d="M371.227 207.327H207.702V245.204H371.227V207.327Z" fill="#565661"/>
<path opacity="0.1" d="M371.227 207.327H207.702V245.204H371.227V207.327Z" fill="black"/>
<path d="M227.267 246.45L228.415 347.569L212.687 387.286L211.47 246.45H227.267Z" fill="#BCBEC9"/>
<path d="M209.427 214.599L368.637 215.557V243.767H209.427V214.599Z" fill="#565661"/>
<path d="M355.015 246.45L368.637 248.372V385.751L355.015 343.731V246.45Z" fill="#BCBEC9"/>
<path d="M450.54 208.845H373.812V371.941H450.54V208.845Z" fill="#EFEFF0"/>
<path d="M444.402 213.375H379.951V338.744H444.402V213.375Z" fill="#565661"/>
<path opacity="0.1" d="M444.402 213.375H379.951V338.744H444.402V213.375Z" fill="black"/>
<path d="M444.402 215.943H379.951V243.767H444.402V215.943Z" fill="#565661"/>
<path d="M444.402 246.45H379.951V305.548H444.402V246.45Z" fill="#565661"/>
<path d="M444.402 309.195H379.951V368.293H444.402V309.195Z" fill="#565661"/>
<path opacity="0.1" d="M444.402 309.195H379.951V368.293H444.402V309.195Z" fill="black"/>
<path d="M382.639 382.56C384.933 382.56 386.793 380.183 386.793 377.25C386.793 374.318 384.933 371.941 382.639 371.941C380.345 371.941 378.485 374.318 378.485 377.25C378.485 380.183 380.345 382.56 382.639 382.56Z" fill="#565661"/>
<path d="M440.248 382.814C442.542 382.814 444.402 380.436 444.402 377.504C444.402 374.572 442.542 372.194 440.248 372.194C437.953 372.194 436.094 374.572 436.094 377.504C436.094 380.436 437.953 382.814 440.248 382.814Z" fill="#565661"/>
<path d="M207.125 387.286H212.687L211.158 210.259H202.712L207.125 387.286Z" fill="#EFEFF0"/>
<path d="M368.637 208.845V385.751H373.812V210.259L368.637 208.845Z" fill="#EFEFF0"/>
<path d="M211.429 242.035V248.372H368.637V243.767L211.429 242.035Z" fill="#EFEFF0"/>
<path d="M222.086 196.95H421.387L450.35 206.542V212.105L201.754 210.189V204.528L222.086 196.95Z" fill="white"/>
<path d="M201.754 204.528L450.35 206.542V212.105L201.754 210.189V204.528Z" fill="#BCBEC9"/>
<path d="M224.272 270.505L223.118 270.332C223.118 270.28 223.118 270.234 223.118 270.187C223.084 269.916 223.043 269.651 223.003 269.379C223.476 269.755 223.926 270.13 224.341 270.505H224.272Z" fill="url(#paint0_linear)"/>
<path d="M199.198 359.619C199.948 359.446 200.709 359.302 201.471 359.198C206.702 358.453 212.036 359.238 216.829 361.46C216.345 365.027 215.866 368.714 216.893 372.16C217.608 374.584 219.045 376.777 219.351 379.305C220.121 379.437 220.84 379.782 221.426 380.299C222.011 380.817 222.442 381.488 222.668 382.237C222.89 382.899 223.001 383.593 222.997 384.291C222.991 385.155 222.882 386.015 222.674 386.854C222.604 387.523 222.275 388.139 221.758 388.57C221.241 389.002 220.576 389.214 219.905 389.162C215.439 389.67 211.06 387.91 206.906 386.184L198.829 382.825C197.882 382.433 196.93 382.035 196.025 381.55C194.307 380.621 192.781 379.373 191.53 377.873C191.266 377.606 191.08 377.27 190.994 376.904C190.844 375.888 192.032 375.282 192.788 374.595C193.009 374.386 193.203 374.149 193.365 373.891C194.259 372.541 194.346 370.677 194.882 369.084C196.152 365.304 200.075 362.868 201.46 359.18C201.535 358.978 201.604 358.776 201.661 358.569" fill="#A26565"/>
<path opacity="0.1" d="M222.997 384.291C222.991 385.155 222.882 386.015 222.674 386.854C222.604 387.523 222.275 388.139 221.758 388.57C221.241 389.002 220.576 389.214 219.905 389.162C215.439 389.67 211.06 387.91 206.906 386.184L198.829 382.825C197.882 382.433 196.93 382.035 196.025 381.55C194.307 380.621 192.781 379.373 191.53 377.873C191.266 377.606 191.08 377.27 190.994 376.904C190.844 375.888 192.032 375.282 192.788 374.595C193.009 374.386 193.203 374.149 193.365 373.891C195.592 374.37 198.356 375.773 200.058 376.315C201.762 376.78 203.399 377.464 204.927 378.352C207.05 379.714 208.579 381.815 210.379 383.547C212.179 385.278 214.504 386.854 217.014 386.64C218.341 386.44 219.62 385.998 220.787 385.336L222.997 384.291Z" fill="black"/>
<path d="M213.541 302.276C213.691 302.799 213.677 303.356 213.502 303.872C213.327 304.388 212.998 304.838 212.56 305.161C211.804 305.629 210.829 305.565 210.079 306.073C209.15 306.725 209.018 308.018 208.856 309.138C208.279 312.987 206.369 316.479 204.737 320.017C203.104 323.554 201.725 327.415 202.325 331.259C202.735 333.868 204.015 336.649 202.815 338.998C202.521 339.575 202.083 340.089 201.748 340.649C200.104 343.396 201.038 346.876 200.975 350.073C200.999 350.428 200.921 350.783 200.75 351.095C200.498 351.39 200.187 351.629 199.838 351.799C199.253 352.23 198.771 352.787 198.431 353.429C198.09 354.072 197.899 354.783 197.871 355.51C197.822 356.963 197.997 358.415 198.39 359.815C198.454 360.38 198.703 360.908 199.1 361.316C199.559 361.619 200.102 361.773 200.652 361.754C204.276 362.048 207.832 362.913 211.187 364.317C213.374 365.229 215.497 366.371 217.822 366.81C218.047 366.88 218.283 366.903 218.517 366.878C218.752 366.853 218.978 366.781 219.183 366.666C219.476 366.402 219.678 366.052 219.76 365.667C220.655 362.724 221.56 359.688 221.255 356.629C221.122 355.314 220.77 354.027 220.678 352.711C220.274 347.517 223.787 342.83 224.901 337.705C225.403 335.397 225.403 333.008 225.761 330.676C226.73 324.287 230.249 318.556 231.605 312.237C231.794 311.059 232.087 309.9 232.482 308.774C233.492 306.327 235.828 304.342 235.88 301.693C235.912 301.11 235.759 300.532 235.442 300.042C234.898 299.445 234.175 299.04 233.382 298.888C230.248 298.025 227.057 297.381 223.834 296.96C222.356 296.67 220.848 296.565 219.345 296.649C217.393 296.878 215.516 297.541 213.852 298.588C211.625 299.961 213.056 300.29 213.541 302.276Z" fill="#454B69"/>
<path opacity="0.05" d="M213.541 302.276C213.691 302.799 213.677 303.356 213.502 303.872C213.327 304.388 212.998 304.838 212.56 305.161C211.804 305.629 210.829 305.565 210.079 306.073C209.15 306.725 209.018 308.018 208.856 309.138C208.279 312.987 206.369 316.479 204.737 320.017C203.104 323.554 201.725 327.415 202.325 331.259C202.735 333.868 204.015 336.649 202.815 338.998C202.521 339.575 202.083 340.089 201.748 340.649C200.104 343.396 201.038 346.876 200.975 350.073C200.999 350.428 200.921 350.783 200.75 351.095C200.498 351.39 200.187 351.629 199.838 351.799C199.253 352.23 198.771 352.787 198.431 353.429C198.09 354.072 197.899 354.783 197.871 355.51C197.822 356.963 197.997 358.415 198.39 359.815C198.454 360.38 198.703 360.908 199.1 361.316C199.559 361.619 200.102 361.773 200.652 361.754C204.276 362.048 207.832 362.913 211.187 364.317C213.374 365.229 215.497 366.371 217.822 366.81C218.047 366.88 218.283 366.903 218.517 366.878C218.752 366.853 218.978 366.781 219.183 366.666C219.476 366.402 219.678 366.052 219.76 365.667C220.655 362.724 221.56 359.688 221.255 356.629C221.122 355.314 220.77 354.027 220.678 352.711C220.274 347.517 223.787 342.83 224.901 337.705C225.403 335.397 225.403 333.008 225.761 330.676C226.73 324.287 230.249 318.556 231.605 312.237C231.794 311.059 232.087 309.9 232.482 308.774C233.492 306.327 235.828 304.342 235.88 301.693C235.912 301.11 235.759 300.532 235.442 300.042C234.898 299.445 234.175 299.04 233.382 298.888C230.248 298.025 227.057 297.381 223.834 296.96C222.356 296.67 220.848 296.565 219.345 296.649C217.393 296.878 215.516 297.541 213.852 298.588C211.625 299.961 213.056 300.29 213.541 302.276Z" fill="black"/>
<path d="M202.25 389.254H197.329L194.109 323.093L193.884 319.33L198.067 317.858L198.35 321.858L202.25 389.254Z" fill="#565661"/>
<path opacity="0.1" d="M198.35 321.858L194.109 323.093L193.884 319.33L198.067 317.858L198.35 321.858Z" fill="black"/>
<path d="M264.001 403.25L255.883 404.231L218.485 319.33L208.4 318.591L190.688 323.762L187.243 424.846H179.126L182.322 320.068L162.885 320.565L128.198 406.938H120.819L157.3 305.992L158.707 302.103L213.074 300.238L226.626 307.839L226.799 308.278L264.001 403.25Z" fill="#565661"/>
<path opacity="0.1" d="M226.799 308.278C215.116 311.798 202.988 315.642 202.988 315.642C202.988 315.642 191.928 319.503 187.243 315.642C186.653 315.181 185.993 314.817 185.288 314.563C185.896 314.997 186.552 315.359 187.243 315.642L157.3 305.987L158.702 302.103L213.074 300.238L226.626 307.839L226.799 308.278Z" fill="black"/>
<path d="M171.499 291.524L193.636 286.601C193.636 286.601 246.531 296.447 250.466 300.383C250.466 300.383 208.152 308.993 203.479 311.925C198.806 314.857 171.002 318.1 171.499 291.524Z" fill="white"/>
<path d="M161.979 236.183C160.248 241.672 155.523 246.618 149.77 246.854C149.352 246.903 148.928 246.827 148.553 246.635C147.832 246.185 147.815 245.129 148.109 244.326C148.403 243.524 148.917 242.803 148.997 241.96C149.015 241.788 149.003 241.615 148.963 241.447C148.813 240.76 148.253 240.148 147.595 240.292C148.043 239.934 148.342 239.421 148.432 238.855C148.523 238.288 148.399 237.708 148.086 237.228C147.825 236.933 147.589 236.616 147.382 236.281C146.903 235.3 147.647 234.198 147.959 233.147C148.599 230.839 146.972 228.53 146.84 226.124C146.724 223.971 147.815 221.945 148.086 219.81C148.519 216.347 146.799 213.029 146.597 209.572C146.459 207.159 147.053 204.77 147.717 202.444C148.293 200.367 148.945 198.266 148.986 196.096C148.986 194.52 148.715 192.962 148.64 191.392C148.52 189.957 148.781 188.516 149.395 187.214C149.795 186.448 150.475 185.867 151.294 185.592C153.186 184.957 154.426 185.944 154.703 187.739C155.165 190.792 154.9 193.909 155.505 196.973C156.065 199.839 156.914 202.641 158.038 205.336C159.059 207.771 160.3 210.126 161.084 212.648C161.675 214.727 162.098 216.85 162.348 218.996C163.121 224.762 163.727 230.695 161.979 236.183Z" fill="#02F686"/>
<path d="M293.385 375.871C292.655 376.9 291.716 377.763 290.629 378.404C289.542 379.044 288.333 379.448 287.079 379.588C284.575 379.899 281.973 379.27 279.544 379.957C279.168 380.019 278.813 380.173 278.511 380.406C278.209 380.638 277.969 380.942 277.813 381.29C277.753 381.759 277.716 382.231 277.703 382.704C277.421 384.245 275.396 384.591 273.821 384.58L267.324 384.539C265.974 384.539 264.48 384.464 263.511 383.529C263.05 383.019 262.79 382.358 262.779 381.67C262.769 380.982 263.008 380.314 263.453 379.789C263.654 379.551 263.901 379.354 264.18 379.212C263.774 379.078 263.414 378.834 263.139 378.507C262.864 378.18 262.685 377.783 262.622 377.36C262.504 376.511 262.545 375.648 262.743 374.815C262.743 372.402 263.32 368.362 265.016 366.475C267.099 364.126 270.711 361.091 273.855 360.462C274.917 360.258 276.012 360.306 277.052 360.601C278.092 360.897 279.048 361.432 279.844 362.164C281.332 363.549 282.417 365.719 284.46 365.962C285.573 366.1 286.646 365.575 287.748 365.384C289.001 365.223 290.272 365.453 291.389 366.043C292.505 366.633 293.412 367.554 293.985 368.68C294.265 369.25 294.459 369.859 294.562 370.486C294.867 372.365 294.446 374.29 293.385 375.871Z" fill="#A26565"/>
<path opacity="0.1" d="M293.385 375.871C292.655 376.9 291.716 377.763 290.629 378.404C289.542 379.044 288.333 379.448 287.079 379.588C284.575 379.899 281.973 379.27 279.544 379.957C279.168 380.019 278.813 380.173 278.511 380.406C278.209 380.638 277.969 380.942 277.813 381.29C277.753 381.759 277.716 382.231 277.703 382.704C277.421 384.245 275.396 384.591 273.821 384.58L267.324 384.539C265.974 384.539 264.48 384.464 263.511 383.529C263.05 383.019 262.79 382.358 262.779 381.67C262.769 380.982 263.008 380.314 263.453 379.79C267.203 379.634 270.89 379.789 274.628 379.016C276.146 378.71 277.64 378.306 279.175 378.093C282.498 377.62 286.035 378.023 289.087 376.615C291.631 375.461 293.454 373.112 294.533 370.492C294.845 372.366 294.435 374.288 293.385 375.871Z" fill="black"/>
<path d="M276.244 366.746C273.936 368.536 271.23 369.932 268.322 370.082C265.414 370.232 262.328 368.928 260.903 366.4C258.82 362.689 260.666 357.53 258.116 354.125C257.32 353.057 256.172 352.301 255.329 351.268C254.487 350.235 254.002 348.682 254.752 347.586C253.847 347.932 252.889 347.055 252.623 346.12C252.358 345.185 252.525 344.181 252.364 343.234C251.943 340.724 249.479 339.114 248.296 336.886C247.114 334.658 247.275 331.767 247.142 329.129C246.848 322.703 244.456 316.551 240.334 311.614C239.55 310.679 238.546 309.726 237.323 309.773C237.536 307.66 236.128 305.64 234.305 304.578C232.482 303.516 230.313 303.159 228.201 302.951C206.894 300.85 184.693 308.774 164.35 302.108C158.69 300.256 153.232 297.157 149.771 292.297C148.422 290.448 147.457 288.347 146.933 286.119C146.409 283.891 146.336 281.58 146.718 279.323V279.243C147.52 275.145 149.684 274.135 153.267 272.265C157.403 270.078 161.726 268.264 166.185 266.846C174.839 264.139 184.157 263.164 193.088 265.149C197.259 266.084 201.281 267.631 205.458 268.537C207.102 268.895 208.758 269.149 210.425 269.362C213.016 269.685 215.618 269.899 218.226 270.199C226.564 271.159 234.776 273.007 242.723 275.711C245.683 276.715 248.643 277.863 251.187 279.681C253.199 281.143 254.901 282.991 256.193 285.118C257.484 287.244 258.34 289.606 258.71 292.066C258.953 293.763 258.958 295.529 259.328 297.174C259.678 298.556 260.141 299.907 260.712 301.214C265.642 313.406 269.67 325.944 272.765 338.727C272.94 339.676 273.266 340.592 273.728 341.439C274.467 342.634 275.736 343.436 276.48 344.631C278.211 347.447 276.544 351.378 278.079 354.309C278.609 355.325 279.492 356.127 280.023 357.143C281.754 360.473 279.198 364.455 276.244 366.746Z" fill="#454B69"/>
<path opacity="0.1" d="M246.762 300.435C247.582 299.785 248.289 299.005 248.856 298.126C249.424 297.242 249.65 296.181 249.491 295.142C249.716 296.456 249.63 297.805 249.24 299.08C248.85 300.354 248.167 301.52 247.246 302.483C245.798 303.967 243.081 305.421 240.963 304.913C241.263 303.216 245.417 301.577 246.762 300.435Z" fill="black"/>
<path opacity="0.1" d="M210.714 271.671C210.54 272.289 210.214 272.855 209.767 273.316C209.32 273.778 208.765 274.121 208.152 274.314C206.922 274.69 205.634 274.841 204.35 274.758H203.196C188.057 274.424 172.756 271.065 157.969 274.268C156.187 274.635 154.438 275.151 152.742 275.809C150.58 276.661 148.556 277.828 146.736 279.271V279.191C147.538 275.093 149.701 274.083 153.284 272.213C157.417 270.045 161.734 268.248 166.185 266.846C174.839 264.139 184.157 263.164 193.088 265.149C197.259 266.084 201.281 267.631 205.458 268.537C207.102 268.895 208.758 269.149 210.425 269.362C210.749 270.086 210.849 270.89 210.714 271.671Z" fill="black"/>
<path d="M210.714 270.845C210.541 271.465 210.216 272.032 209.769 272.495C209.321 272.957 208.766 273.301 208.152 273.494C206.922 273.871 205.634 274.02 204.35 273.933H203.196C188.057 273.598 172.756 270.239 157.969 273.442C156.188 273.811 154.439 274.324 152.742 274.978C150.478 275.881 148.367 277.126 146.482 278.671C146.04 277.455 145.599 276.238 145.161 275.018C144.63 273.564 146.315 273.24 146.638 271.936C146.851 271.053 146.488 270.049 146.303 269.108C146.256 268.878 146.225 268.645 146.211 268.41C146.107 266.326 146.851 265.126 148.559 264.001C153.625 260.653 159.804 258.356 165.585 256.631C168.658 255.659 171.833 255.043 175.047 254.795C179.593 254.53 184.134 255.373 188.559 256.44C194 257.785 199.382 259.563 204.206 262.408C206.571 263.787 208.879 265.518 210.154 267.977C210.663 268.841 210.861 269.853 210.714 270.845Z" fill="#A26565"/>
<path opacity="0.1" d="M161.979 236.183C160.248 241.672 155.523 246.618 149.771 246.854C149.352 246.903 148.928 246.827 148.553 246.635C147.832 246.185 147.815 245.129 148.109 244.326C148.403 243.524 148.917 242.803 148.997 241.96C149.015 241.788 149.003 241.615 148.963 241.447C152.015 237.141 154.975 232.79 156.146 227.694C156.383 226.816 156.455 225.902 156.359 224.998C156.204 223.96 155.679 223.019 155.39 222.015C154.882 220.237 155.119 218.356 155.263 216.515C155.864 208.408 154.511 200.275 151.317 192.801C150.538 191 149.649 189.176 149.378 187.254C149.778 186.489 150.458 185.908 151.276 185.633C153.169 184.998 154.409 185.985 154.686 187.78C155.148 190.833 154.882 193.949 155.488 197.014C156.048 199.879 156.897 202.681 158.021 205.376C159.042 207.812 160.283 210.166 161.067 212.688C161.658 214.767 162.081 216.89 162.331 219.037C163.121 224.762 163.727 230.695 161.979 236.183Z" fill="black"/>
<path opacity="0.1" d="M210.714 270.845C210.541 271.465 210.216 272.032 209.769 272.495C209.321 272.957 208.766 273.301 208.152 273.494C206.922 273.871 205.634 274.02 204.35 273.933H203.196C198.268 270.659 192.343 269.228 186.465 269.893C184.584 270.118 182.703 270.557 180.822 270.384C177.02 270.037 173.939 267.302 170.552 265.553C166.699 263.65 162.364 262.941 158.105 263.519C153.846 264.097 149.857 265.935 146.649 268.797L146.32 269.085C146.273 268.855 146.242 268.621 146.228 268.387C146.124 266.303 146.868 265.103 148.576 263.978C153.642 260.63 159.821 258.333 165.602 256.608C168.675 255.636 171.85 255.02 175.064 254.772C179.61 254.507 184.151 255.35 188.576 256.417C194.017 257.762 199.4 259.539 204.223 262.385C206.571 263.787 208.879 265.518 210.154 267.977C210.663 268.841 210.861 269.853 210.714 270.845Z" fill="black"/>
<path d="M223.655 207.627L223.574 207.835C222.282 211.188 219.905 214.022 218.381 217.288C216.46 221.426 215.987 226.066 215.56 230.614C215.191 234.509 214.827 238.428 215.122 242.335C215.86 251.962 220.562 261.092 221.82 270.534C222.13 272.714 222.209 274.921 222.057 277.119C221.953 278.51 221.699 280.004 220.776 281.032C219.853 282.059 218.058 282.463 217.066 281.476C217.51 280.628 217.96 279.785 218.41 278.937C215.774 276.888 211.804 278.36 208.723 277.078C207.368 276.501 206.283 275.462 205.146 274.533C202.552 272.423 199.563 270.854 196.354 269.916C193.144 268.979 189.78 268.692 186.459 269.074C184.578 269.304 182.697 269.743 180.816 269.57C177.014 269.218 173.933 266.488 170.547 264.739C166.693 262.837 162.359 262.128 158.101 262.705C153.842 263.282 149.852 265.118 146.643 267.977C145.836 268.727 144.751 269.605 143.759 269.131C143.375 268.896 143.065 268.558 142.864 268.156C139.085 261.698 141.866 253.37 145.905 247.079C149.944 240.789 155.292 234.989 156.954 227.699C157.193 226.822 157.266 225.908 157.167 225.004C157.011 223.965 156.486 223.025 156.198 222.02C155.69 220.243 155.927 218.362 156.071 216.52C156.676 208.413 155.327 200.278 152.136 192.801C151.213 190.648 150.117 188.466 150.117 186.129C150.117 182.447 152.753 179.394 154.934 176.433C157.444 173.028 159.55 169.26 162.729 166.461C165.741 163.8 170.102 162.172 173.829 163.523C180.162 161.985 186.681 161.35 193.192 161.636C195.442 161.74 197.767 161.976 199.74 163.067C201.852 164.221 203.369 166.276 205.446 167.505C206.964 168.411 208.712 168.838 210.362 169.473C214.918 171.253 218.679 174.618 220.955 178.95C223.262 183.422 223.839 188.564 224.347 193.574C224.832 198.289 225.293 203.189 223.655 207.627Z" fill="#02F686"/>
<path opacity="0.1" d="M215.122 242.335C215.86 251.962 220.562 261.092 221.82 270.534C219.305 268.404 215.803 266.263 215.335 263.787C214.816 261.109 213.154 257.6 212.877 254.894C212.6 252.187 214.499 248.88 212.508 247.022C211.539 246.116 214.118 246.369 213.172 245.44C211.043 243.368 210.518 240.177 210.385 237.216C210.16 231.976 210.823 226.678 209.86 221.524C209.283 218.344 208.077 215.314 207.114 212.227C205.994 208.631 205.187 204.949 204.379 201.261C203.584 197.982 203.006 194.655 202.648 191.3C202.4 188.414 202.515 185.356 203.802 182.724C205.089 180.092 207.691 177.957 210.61 177.997C220.372 178.124 218.687 191.364 220.834 197.481C221.693 199.917 222.853 202.271 223.32 204.811C223.491 205.806 223.583 206.813 223.597 207.823C222.305 211.176 219.928 214.01 218.405 217.277C216.483 221.415 216.01 226.055 215.583 230.602C215.191 234.509 214.827 238.428 215.122 242.335Z" fill="black"/>
<path d="M221.468 197.331C222.328 199.766 223.487 202.121 223.955 204.66C224.734 208.914 223.528 213.433 224.838 217.554C225.178 218.433 225.464 219.333 225.691 220.249C225.916 221.559 225.657 222.898 225.657 224.231C225.657 226.378 226.332 228.455 226.932 230.516C228.961 237.517 230.304 244.7 230.942 251.962C231.037 253.913 231.345 255.848 231.859 257.733C232.101 258.372 232.309 259.023 232.482 259.684C232.637 260.566 232.674 261.464 232.592 262.356C232.436 265.184 232.119 268.023 232.436 270.84C232.753 273.656 233.78 276.513 235.898 278.4C234.005 278.81 232.003 279.219 230.157 278.613C227.561 277.765 226.003 275.151 224.682 272.773C223.009 269.737 216.651 267.002 215.993 263.591C215.479 260.919 213.818 257.41 213.541 254.697C213.264 251.985 215.156 248.689 213.166 246.831C212.202 245.925 214.781 246.173 213.829 245.25C211.706 243.178 211.181 239.986 211.048 237.02C210.823 231.785 211.481 226.487 210.523 221.334C209.946 218.154 208.741 215.124 207.777 212.03C206.658 208.441 205.85 204.759 205.042 201.065C204.245 197.787 203.667 194.459 203.312 191.104C203.063 188.218 203.173 185.154 204.465 182.522C205.758 179.89 208.36 177.761 211.273 177.795C220.995 177.968 219.322 191.213 221.468 197.331Z" fill="#02F686"/>
<path opacity="0.1" d="M193.648 199.588C194.559 200.655 195.73 201.827 197.109 201.619C197.005 201.785 196.839 201.903 196.648 201.949C196.457 201.994 196.256 201.963 196.088 201.861C195.757 201.642 195.492 201.337 195.321 200.978L193.348 197.648C193.088 197.216 191.299 194.694 190.861 196.148C190.688 196.765 193.203 199.068 193.648 199.588Z" fill="black"/>
<path opacity="0.1" d="M192.586 207.892C192.529 206.804 192.071 205.776 191.299 205.007C190.606 204.378 189.797 203.89 188.917 203.57C186.753 202.681 184.191 201.965 181.843 202.081C182.697 203.327 185.438 204.072 186.811 204.776C188.757 205.78 190.682 206.819 192.586 207.892Z" fill="black"/>
<path opacity="0.1" d="M198.731 231.532C198.332 234.486 195.915 236.726 193.469 238.457C191.022 240.188 188.276 241.677 186.678 244.182C185.57 245.914 185.074 247.922 184.134 249.728C183.095 251.719 181.543 253.393 180.303 255.263C179.062 257.133 178.093 259.366 178.474 261.582C178.479 261.684 178.506 261.784 178.551 261.876C178.597 261.967 178.661 262.048 178.739 262.113C178.858 262.164 178.988 262.183 179.116 262.168C179.244 262.154 179.367 262.108 179.472 262.033C181.987 260.717 182.98 257.71 184.036 255.107C185.144 252.48 186.392 249.914 187.774 247.42C188.397 246.266 189.084 245.007 190.244 244.367C191.038 244.036 191.851 243.753 192.678 243.518C193.852 242.98 194.882 242.171 195.684 241.158C198.834 237.399 200.478 232.606 200.3 227.705C200.265 226.672 200.208 221.697 198.656 223.232C197.104 224.768 198.996 229.523 198.731 231.532Z" fill="black"/>
<path d="M202.533 118.201C207.494 120.365 211.764 125.127 211.608 130.523C211.475 136.19 206.733 141.529 208.366 146.959C209.312 150.111 212.162 152.223 214.418 154.618C223.009 163.713 222.991 179.59 214.372 188.668C211.071 192.131 206.831 194.595 203.34 197.902C191.034 209.503 190.509 229.569 197.098 245.146C192.049 246.238 186.904 246.818 181.739 246.877C179.322 246.877 176.362 246.468 175.485 244.211C174.677 242.128 176.062 239.311 174.47 237.77C173.72 237.049 172.595 236.951 171.585 236.783C165.089 235.733 159.758 230.545 157.323 224.433C154.888 218.321 155.015 211.442 156.411 205.013C157.404 200.367 158.956 195.253 156.654 191.098C153.769 185.869 145.472 183.665 145.599 177.686C145.703 172.786 151.478 170.402 154.755 166.761C160.802 160.054 157.923 149.649 157.911 140.611C157.911 132.658 160.692 124.452 166.612 119.154C175.416 111.206 192.373 113.786 202.533 118.201Z" fill="#A26565"/>
<g opacity="0.1">
<path opacity="0.1" d="M157.6 185.171C155.067 180.6 148.415 178.338 146.869 173.842C146.095 174.891 145.66 176.152 145.622 177.455C145.495 183.434 153.78 185.638 156.677 190.873C157.628 192.726 158.028 194.813 157.831 196.887C158.742 192.87 159.544 188.68 157.6 185.171Z" fill="black"/>
<path opacity="0.1" d="M209.029 139.561C210.068 136.531 211.574 133.472 211.649 130.327C211.659 129.986 211.649 129.645 211.62 129.305C210.46 132.779 208.683 136.15 209.029 139.561Z" fill="black"/>
<path opacity="0.1" d="M158.592 155.703C160.577 149.43 158.863 141.65 158.858 134.69C158.858 133.847 158.892 132.999 158.956 132.156C158.272 134.846 157.927 137.611 157.929 140.386C157.94 145.355 158.811 150.745 158.592 155.703Z" fill="black"/>
<path opacity="0.1" d="M215.335 182.764C212.035 186.227 207.794 188.691 204.304 191.998C198.073 197.868 194.871 205.907 194.069 214.431C195.557 208.083 198.563 202.237 203.381 197.695C206.842 194.405 211.112 191.952 214.412 188.461C218.338 184.181 220.617 178.647 220.845 172.844C219.849 176.552 217.957 179.959 215.335 182.764Z" fill="black"/>
<path opacity="0.1" d="M182.703 240.956C180.285 240.956 177.326 240.54 176.449 238.284C175.641 236.206 177.026 233.39 175.433 231.843C174.683 231.122 173.552 231.024 172.549 230.856C166.058 229.812 160.727 224.618 158.292 218.512C156.498 213.998 156.111 209.076 156.561 204.216C156.515 204.407 156.475 204.597 156.434 204.793C155.061 211.222 154.917 218.108 157.346 224.219C159.775 230.331 165.112 235.519 171.602 236.564C172.629 236.731 173.76 236.835 174.487 237.551C176.097 239.098 174.695 241.914 175.503 243.992C176.38 246.248 179.339 246.693 181.757 246.664C186.921 246.604 192.067 246.024 197.115 244.932C196.403 243.249 195.781 241.528 195.252 239.779C191.108 240.515 186.911 240.909 182.703 240.956Z" fill="black"/>
</g>
<path opacity="0.1" d="M201.598 215.788C203.023 216.861 204.569 212.769 203.687 211.748C203.45 212.013 201.379 215.637 201.598 215.788Z" fill="black"/>
<path opacity="0.1" d="M207.673 289.856C209.352 289.279 211.135 288.702 212.231 287.317C213.137 286.203 213.881 281.782 211.966 283.9C210.339 285.718 209.571 288.113 207.673 289.856Z" fill="black"/>
<path opacity="0.1" d="M224.768 285.222C224.566 286.584 224.191 287.998 223.228 288.979C223.049 289.163 222.651 289.279 222.599 289.031C223.675 288.458 224.675 287.752 225.576 286.93C227.526 284.997 227.792 280.235 224.82 278.971C224.791 281.061 225.086 283.098 224.768 285.222Z" fill="black"/>
<path d="M245.29 276.64C245.29 276.64 228.917 270.205 222.997 270.868C217.078 271.532 229.701 280.864 229.701 280.864L237.248 285.955C237.248 285.955 241.863 284.223 242.169 284.09C242.475 283.958 245.29 276.64 245.29 276.64Z" fill="#454B69"/>
<path d="M132.629 207.604C132.629 207.604 144.93 200.471 161.165 209.335C177.401 218.2 180.107 270.366 180.107 270.366C180.107 270.366 173.466 323.514 199.071 311.689C199.071 311.689 245.804 297.174 250.483 300.371C250.483 300.371 254.914 300.371 246.058 302.339C237.202 304.307 202.988 315.151 202.988 315.151C202.988 315.151 191.928 319.018 187.243 315.151C182.559 311.285 169.283 315.648 167.558 289.065C166.416 272.314 164.363 255.637 161.408 239.109L156.844 225.576L132.629 207.604Z" fill="#565661"/>
<path d="M131.152 289.798C131.152 289.798 136.564 235.906 127.691 216.463C119.971 199.518 149.822 207.442 157.611 209.751C158.817 210.111 159.868 210.862 160.6 211.886C165.215 218.379 181.774 244.401 176.893 279.219C176.893 279.219 174.926 310.228 187.226 315.146L149.326 302.934C146.251 301.941 143.13 301.116 139.98 300.4C135.964 299.488 129.421 296.897 131.152 289.798Z" fill="white"/>
<path d="M400.709 390.409H405.631L408.856 324.247L409.075 320.484L404.892 319.012L404.615 323.012L400.709 390.409Z" fill="#565661"/>
<path opacity="0.1" d="M404.615 323.012L408.856 324.247L409.075 320.484L404.892 319.012L404.615 323.012Z" fill="black"/>
<path d="M359.619 364.859C359.498 365.765 359.265 366.653 358.927 367.502C358.577 368.611 357.826 369.55 356.821 370.134C356.146 370.413 355.422 370.556 354.692 370.555C351.974 370.717 349.101 370.677 346.764 369.292C345.769 368.65 344.856 367.888 344.047 367.023C338.796 361.805 334.023 356.126 329.785 350.056C329.075 349.034 328.342 347.828 328.66 346.593C334.15 345.07 339.363 342.684 344.105 339.523C344.759 339.021 345.492 338.631 346.274 338.369C347.613 338.083 348.991 338.032 350.347 338.219C351.657 338.433 351.715 338.473 352.217 339.95C353.047 342.449 352.909 345.145 353.844 347.644C354.437 349.024 355.159 350.346 356.001 351.591C358.413 355.625 360.265 360.386 359.619 364.859Z" fill="#A26565"/>
<path opacity="0.1" d="M359.619 364.859C359.498 365.765 359.265 366.653 358.927 367.502C358.577 368.611 357.826 369.55 356.821 370.134C356.146 370.413 355.422 370.556 354.692 370.555C351.974 370.717 349.101 370.677 346.764 369.292C345.769 368.65 344.856 367.888 344.047 367.023C338.796 361.805 334.023 356.126 329.785 350.056C329.075 349.034 328.342 347.828 328.66 346.593C330.451 346.097 332.215 345.507 333.945 344.827L334.031 344.891C335.802 346.155 337.089 347.967 338.341 349.744L342.38 355.429C343.1 356.546 343.95 357.572 344.912 358.488C346.106 359.446 347.424 360.238 348.83 360.842C350.728 361.76 352.626 362.678 354.599 363.416C355.875 363.93 358.032 364.132 359.619 364.859Z" fill="black"/>
<path d="M363.346 303.228C362.948 304.187 362.466 305.108 361.904 305.981C356.541 314.988 352.404 324.671 349.603 334.774C348.807 334.595 348.357 335.68 348.363 336.505C348.368 337.33 348.363 338.369 347.601 338.669C347.376 338.756 347.122 338.756 346.903 338.854C346.418 339.073 346.28 339.691 346.211 340.222L345.53 345.22C345.293 346.951 345.086 348.827 345.934 350.356C346.519 351.265 347.278 352.05 348.166 352.665L359.429 361.552C359.89 361.916 360.461 362.303 361.015 362.101C362.279 361.639 361.159 359.377 362.169 358.459C362.838 357.83 363.9 358.303 364.829 358.228C366.04 358.136 366.958 357.022 367.264 355.85C367.478 354.657 367.5 353.437 367.327 352.237C367.251 351.69 367.314 351.132 367.512 350.616C367.856 350.069 368.329 349.615 368.891 349.294C370.845 347.867 372.419 345.982 373.476 343.805C374.533 341.627 375.041 339.224 374.954 336.805C374.863 336.069 374.89 335.322 375.035 334.595C375.27 333.929 375.624 333.311 376.079 332.771C380.17 327.236 383.58 321.229 386.966 315.232C388.916 311.769 390.901 308.255 391.582 304.353C391.641 304.208 391.665 304.051 391.653 303.895C391.641 303.739 391.593 303.587 391.513 303.453C391.432 303.319 391.321 303.205 391.189 303.121C391.057 303.037 390.907 302.984 390.751 302.968C389.062 302.441 387.338 302.028 385.593 301.733C380.291 300.66 375.173 299.003 370.016 297.41C364.858 295.818 364.898 299.061 363.346 303.228Z" fill="#454B69"/>
<path d="M338.958 404.404L347.082 405.385L384.474 320.484L394.559 319.745L412.277 324.916L415.716 426H423.833L420.637 321.223L440.075 321.719L474.761 408.092H482.14L445.66 307.147L444.258 303.257L389.886 301.393L376.333 308.993L376.16 309.432L338.958 404.404Z" fill="#565661"/>
<path opacity="0.1" d="M376.16 309.432C387.843 312.953 399.971 316.796 399.971 316.796C399.971 316.796 411.031 320.657 415.716 316.796C416.306 316.335 416.967 315.971 417.672 315.717C417.064 316.151 416.407 316.513 415.716 316.796L445.659 307.141L444.275 303.257L389.903 301.393L376.35 308.993L376.16 309.432Z" fill="black"/>
<path d="M431.461 292.678L409.323 287.755C409.323 287.755 356.428 297.601 352.494 301.537C352.494 301.537 394.807 310.148 399.48 313.079C404.154 316.011 431.957 319.255 431.461 292.678Z" fill="white"/>
<path d="M349.315 371.791C347.982 374.33 344.699 375.046 341.814 375.086C337.809 375.136 333.831 374.425 330.091 372.991C327.956 372.171 325.908 371.115 323.704 370.515C320.421 369.615 316.78 369.69 313.896 367.883C312.366 366.863 311.102 365.492 310.209 363.884C310.042 363.601 309.88 363.307 309.73 363.007C308.351 360.323 307.711 357.201 308.478 354.304C309.245 351.406 312.032 348.215 315.263 348.261C319.1 348.319 323.675 350.137 327.379 351.077C331.995 352.232 336.61 353.565 340.689 356.006C344.105 358.061 347.122 361.01 348.732 364.611C349.041 365.306 349.296 366.024 349.493 366.758C349.995 368.42 350.111 370.273 349.315 371.791Z" fill="#A26565"/>
<path opacity="0.1" d="M349.315 371.791C347.982 374.33 344.699 375.046 341.814 375.086C337.809 375.136 333.831 374.425 330.091 372.991C327.956 372.171 325.908 371.115 323.704 370.515C320.421 369.615 316.78 369.69 313.896 367.883C312.366 366.863 311.102 365.492 310.209 363.884C310.042 363.601 309.88 363.307 309.73 363.007C310.307 363.053 310.838 363.111 311.126 363.139C314.669 363.48 318.05 364.773 321.431 365.748C326.124 367.104 330.971 367.86 335.854 367.999C339.316 368.097 342.928 367.843 345.951 366.152C346.854 365.582 347.79 365.068 348.755 364.611C349.064 365.306 349.319 366.024 349.516 366.758C349.995 368.42 350.111 370.273 349.315 371.791Z" fill="black"/>
<path d="M374.106 262.056C366.606 260.826 358.967 260.526 351.363 260.226L342.062 259.857C341.401 259.78 340.731 259.861 340.106 260.094C339.569 260.439 339.058 260.825 338.578 261.248C337.643 261.883 336.449 261.952 335.324 262.015C327.343 262.455 319.405 263.485 311.576 265.097C307.538 265.923 303.343 267.002 300.308 269.789C297.101 272.738 295.693 277.234 295.583 281.586C295.474 285.937 296.616 290.214 297.822 294.392C299.357 299.422 300.205 304.637 300.343 309.894C300.289 311.352 300.345 312.813 300.51 314.263C300.779 315.647 301.187 317 301.728 318.302L305.974 329.643C306.349 330.636 306.718 331.623 307.128 332.592C307.538 333.562 307.93 334.324 308.282 335.235C308.801 336.482 309.211 337.775 309.62 339.062L312.447 347.944L312.817 349.098C313.838 352.295 314.882 355.55 316.809 358.297C318.736 361.044 321.719 363.261 325.071 363.428C326.153 363.387 327.236 363.416 328.314 363.515C329.232 363.739 330.124 364.062 330.973 364.478C333.49 365.524 336.192 366.052 338.918 366.031C341.428 366.031 344.214 365.332 345.576 363.22C346.326 362.066 346.522 360.646 346.73 359.284C347.093 356.549 347.445 353.692 346.516 351.095C345.939 349.542 344.97 348.209 344.301 346.68C343.366 344.596 343.06 342.294 342.455 340.095C341.144 335.362 338.476 331.117 334.781 327.883C333.469 322.686 332.505 317.407 331.896 312.081C331.812 310.902 331.577 309.738 331.198 308.618C330.523 306.887 329.156 305.485 328.585 303.719C328.048 302.079 328.21 300.186 327.235 298.773C335.352 301.006 343.389 300.504 351.819 300.371C354.518 300.38 357.215 300.226 359.896 299.909C361.146 299.68 362.411 299.545 363.681 299.505C366.288 299.505 368.735 300.66 371.129 301.675C377.897 304.561 385.028 306.829 392.378 307.141C399.965 307.458 407.465 305.675 414.879 303.909C418.139 303.13 421.526 302.287 424.11 300.146C426.695 298.005 428.149 294.144 426.557 291.206C425.345 288.996 422.835 287.911 420.493 286.988C414.008 284.425 407.489 281.926 401.24 278.827C391.697 274.175 384.561 263.787 374.106 262.056Z" fill="#454B69"/>
<path d="M360.732 235.947C359.827 237.909 358.303 239.513 357.178 241.36C355.296 244.4 354.675 248.055 355.448 251.546C355.853 253.272 356.649 254.882 357.775 256.252C358.9 257.621 360.324 258.715 361.938 259.447C363.379 260.021 364.894 260.387 366.438 260.532C368.469 260.78 370.633 260.832 372.427 259.851C373.77 259.045 374.872 257.893 375.618 256.515C377.17 253.918 378.052 250.992 378.86 248.078C380.355 242.699 381.63 237.182 381.445 231.601C381.381 229.679 381.001 227.515 379.408 226.407C378.586 225.932 377.675 225.633 376.731 225.529L369.121 224.167C367.65 223.902 365.083 222.823 363.808 223.885C362.533 224.946 362.434 228.086 362.215 229.558C361.869 231.734 361.656 233.944 360.732 235.947Z" fill="#A1616A"/>
<path d="M453.235 213.623L451.244 230.314C450.832 233.291 450.595 236.289 450.535 239.294C450.535 240.968 450.587 242.826 449.479 244.078C448.937 244.648 448.251 245.061 447.494 245.273C445.077 246.023 442.44 245.354 440.132 244.321C438.782 243.744 437.403 242.907 436.792 241.562C436.436 240.63 436.289 239.631 436.359 238.636C436.359 228.681 437.299 218.298 442.498 209.814C442.941 208.982 443.566 208.26 444.327 207.702C445.769 206.779 447.656 207.038 449.289 207.54C450.292 207.846 453.004 208.187 453.644 209.081C454.285 209.976 453.373 212.475 453.235 213.623Z" fill="#A1616A"/>
<path d="M400.427 153.267C411.898 153.267 421.197 143.965 421.197 132.491C421.197 121.016 411.898 111.714 400.427 111.714C388.956 111.714 379.656 121.016 379.656 132.491C379.656 143.965 388.956 153.267 400.427 153.267Z" fill="#A1616A"/>
<path d="M394.871 163.454C394.796 165.07 394.356 166.649 393.584 168.071C404.188 166.455 414.766 164.654 425.316 162.669C421.816 160.869 419.169 157.757 417.954 154.012C417.381 152.004 417.067 149.93 417.02 147.842C416.852 144.531 416.916 141.212 417.21 137.91C413.518 138.297 410.021 139.682 406.502 140.871C402.963 142.067 399.364 143.074 395.719 143.889C393.959 144.282 392.188 144.616 390.411 144.928C388.334 145.297 387.336 145.292 388.778 147.115C392.649 151.986 395.413 156.938 394.871 163.454Z" fill="#A1616A"/>
<path d="M401.252 160.678C398.511 161.088 395.638 161.549 393.451 163.246C392.619 163.961 391.827 164.722 391.08 165.526C386.736 169.744 380.603 171.441 375.329 174.419C374.469 174.844 373.707 175.444 373.091 176.179C372.514 176.982 372.22 178.003 371.614 178.8C370.91 179.723 369.796 180.3 369.248 181.322C368.7 182.343 368.821 183.428 368.764 184.513C368.631 186.897 367.731 189.159 367.033 191.439C363.831 202.352 365.585 214.524 360.738 224.831C360.961 225.425 361.302 225.967 361.74 226.426C362.179 226.884 362.705 227.248 363.288 227.497C364.508 227.937 365.781 228.211 367.073 228.311L377.81 229.644C379.345 229.835 380.972 230.014 382.374 229.373C381.091 232.91 380.184 236.572 379.668 240.298C379.407 242.576 379.002 244.835 378.456 247.062C376.979 252.141 373.264 256.371 368.862 259.262C368.307 259.553 367.84 259.985 367.506 260.515C366.929 261.669 367.783 262.962 368.389 264.093C370.148 267.371 369.906 271.307 369.883 275.024C369.86 278.74 370.235 282.821 372.831 285.487C374.366 287.063 376.466 287.917 378.508 288.731L395.303 295.443C398.075 296.623 400.934 297.588 403.854 298.328C408.279 299.338 412.877 299.298 417.418 299.102C420.418 298.975 423.414 298.782 426.407 298.524C427.597 298.52 428.767 298.212 429.805 297.63C430.699 296.924 431.386 295.991 431.795 294.929C434.132 289.844 434.917 283.912 438.54 279.652C441.027 276.726 444.886 274.389 445.169 270.563C445.302 268.658 444.454 266.805 444.442 264.895C444.442 262.546 445.671 260.313 445.596 257.97C445.44 254.155 441.846 251.246 441.275 247.472C439.821 237.903 444.679 228.346 447.662 219.141C448.198 217.496 448.891 215.678 450.471 214.974C452.052 214.27 454.279 214.639 454.845 213.081C456.27 209.168 456.61 204.58 456.425 200.419C456.322 198.012 455.468 195.657 455.566 193.245C455.635 191.548 456.177 189.898 456.322 188.207C456.541 185.65 455.866 183.111 455.168 180.641C454.966 179.759 454.664 178.903 454.268 178.09C453.841 177.352 453.339 176.661 452.768 176.029L449.958 172.688C448.642 171.124 447.252 169.502 445.342 168.711C444.725 167.182 442.752 166.126 441.338 165.283C439.913 164.474 438.442 163.752 436.93 163.119L421.041 156.101C420.447 155.802 419.811 155.596 419.154 155.489C418.187 155.457 417.226 155.655 416.35 156.067C411.504 157.988 406.444 159.904 401.252 160.678Z" fill="#02F686"/>
<path d="M384.422 136.104C383.81 133.951 382.247 132.093 382.01 129.865C381.797 127.885 382.668 125.969 383.164 124.042C383.66 122.114 383.643 119.759 382.114 118.478C381.86 118.259 381.537 118.063 381.445 117.74C381.26 117.162 381.843 116.637 382.022 116.054C382.351 114.9 380.926 113.625 381.445 112.517C381.739 111.911 382.478 111.697 383.124 111.507C385.593 110.774 388.097 109.146 388.634 106.624C390.567 107.432 392.626 105.914 394.109 104.443C395.592 102.971 397.415 101.291 399.457 101.736L399.002 102.665C402.151 101.521 405.595 101.483 408.769 102.555H407.8C410.584 102.603 413.285 103.516 415.525 105.17C415.277 105.17 415.254 105.539 415.352 105.747C416.16 107.634 418.237 108.632 420.239 109.1C421.445 109.389 422.755 109.596 423.637 110.462C424.52 111.328 424.537 113.134 423.372 113.55C425.749 114.475 427.999 115.697 430.07 117.185C430.647 117.607 431.299 118.178 431.224 118.917C431.142 119.288 431.022 119.649 430.867 119.996C430.751 120.612 430.793 121.247 430.988 121.843L431.628 124.486C432.332 127.424 432.886 130.961 430.745 133.091C431.547 134.589 431.844 136.305 431.594 137.985C431.343 139.664 430.558 141.219 429.355 142.417C429.525 142.933 429.583 143.479 429.527 144.019C429.471 144.559 429.301 145.081 429.028 145.55C428.756 146.019 428.387 146.426 427.946 146.742C427.505 147.059 427.002 147.278 426.47 147.387C427.18 148.495 426.528 150.076 425.409 150.768C424.289 151.461 422.882 151.467 421.578 151.346C420.274 151.224 418.953 150.93 417.649 151.126C415.75 151.421 413.893 152.713 412.064 152.136C411.382 151.845 410.728 151.493 410.108 151.086C408.827 150.399 407.339 150.243 405.919 149.932C403.5 149.412 401.202 148.432 399.152 147.046C397.792 146.229 396.709 145.022 396.042 143.583C394.773 140.374 396.907 136.167 394.663 133.553C393.347 132.029 390.74 132.006 389.268 133.31C388.536 133.963 388.438 135.336 387.676 135.827C386.614 136.096 385.515 136.189 384.422 136.104Z" fill="#464353"/>
<path opacity="0.1" d="M356.198 301.589C355.378 300.94 354.67 300.16 354.103 299.28C353.535 298.397 353.309 297.335 353.469 296.297C353.244 297.611 353.33 298.959 353.719 300.234C354.109 301.509 354.792 302.674 355.713 303.638C357.161 305.121 359.879 306.575 361.996 306.067C361.696 304.371 357.542 302.732 356.198 301.589Z" fill="black"/>
<path d="M470.33 208.758C470.33 208.758 458.029 201.625 441.794 210.49C425.559 219.354 422.853 271.521 422.853 271.521C422.853 271.521 429.493 324.668 403.888 312.843C403.888 312.843 357.155 298.328 352.476 301.525C352.476 301.525 348.045 301.525 356.901 303.493C365.758 305.461 399.971 316.306 399.971 316.306C399.971 316.306 411.031 320.172 415.716 316.306C420.401 312.439 433.676 316.802 435.401 290.219C436.543 273.468 438.596 256.791 441.552 240.263L446.115 226.73L470.33 208.758Z" fill="#565661"/>
<path d="M471.807 290.952C471.807 290.952 466.395 237.06 475.269 217.617C482.988 200.673 453.137 208.597 445.348 210.905C444.143 211.266 443.091 212.017 442.359 213.04C437.744 219.533 421.185 245.556 426.066 280.374C426.066 280.374 428.034 311.383 415.733 316.3L453.633 304.088C456.708 303.095 459.829 302.27 462.98 301.554C466.995 300.642 473.538 298.051 471.807 290.952Z" fill="white"/>
<path opacity="0.1" d="M571.164 395.747C602.212 395.747 627.382 391.703 627.382 386.715C627.382 381.727 602.212 377.683 571.164 377.683C540.115 377.683 514.946 381.727 514.946 386.715C514.946 391.703 540.115 395.747 571.164 395.747Z" fill="#00C0FF"/>
<path d="M572.969 213.687H569.352V295.16H572.969V213.687Z" fill="#535461"/>
<path d="M595.707 294.912L595.482 298.582L595.159 303.776L595.026 305.935L594.709 311.129L594.57 313.287L594.247 318.481L590.601 377.389C590.434 379.917 589.312 382.287 587.463 384.019C585.614 385.751 583.176 386.715 580.643 386.715H561.678C559.141 386.714 556.699 385.745 554.851 384.006C553.003 382.266 551.888 379.888 551.732 377.354L548.074 318.441L547.757 313.247L547.624 311.088L547.295 305.894L547.162 303.736L546.845 298.542L546.614 294.871C546.574 294.168 546.678 293.463 546.919 292.801C547.16 292.139 547.533 291.533 548.015 291.019C548.498 290.506 549.08 290.096 549.726 289.814C550.371 289.533 551.068 289.386 551.772 289.383H590.555C591.262 289.387 591.962 289.535 592.61 289.819C593.258 290.104 593.841 290.517 594.324 291.035C594.806 291.553 595.178 292.164 595.416 292.83C595.654 293.497 595.753 294.205 595.707 294.912Z" fill="#565661"/>
<path d="M595.482 298.582L595.159 303.759H547.168L546.845 298.582H595.482Z" fill="#9D9CB5"/>
<path d="M595.026 305.923L594.709 311.106H547.624L547.301 305.923H595.026Z" fill="#9D9CB5"/>
<path d="M594.57 313.264L594.247 318.441H548.08L547.757 313.264H594.57Z" fill="#9D9CB5"/>
<path d="M541.318 244.223C562.388 259.47 571.164 283.317 571.164 283.317C571.164 283.317 545.778 282.446 524.702 267.198C503.626 251.95 494.862 228.109 494.862 228.109C494.862 228.109 520.253 228.981 541.318 244.223Z" fill="#02F686"/>
<path d="M494.862 228.109C494.862 228.109 521.211 242.739 529.669 254.853C538.127 266.967 571.164 283.317 571.164 283.317" stroke="#535461" stroke-width="2" stroke-miterlimit="10"/>
<path d="M554.917 213.508C566.386 221.801 571.164 234.787 571.164 234.787C571.164 234.787 557.317 234.308 545.876 226.014C534.435 217.721 529.663 204.736 529.663 204.736C529.663 204.736 543.453 205.209 554.917 213.508Z" fill="#02F686"/>
<path d="M529.663 204.736C529.663 204.736 544.006 212.7 548.605 219.291C553.203 225.881 571.192 234.787 571.192 234.787" stroke="#535461" stroke-width="2" stroke-miterlimit="10"/>
<path d="M587.826 234.123C574.654 248.603 571.867 267.527 571.867 267.527C571.867 267.527 590.439 262.968 603.6 248.482C616.76 233.996 619.558 215.078 619.558 215.078C619.558 215.078 600.998 219.643 587.826 234.123Z" fill="#02F686"/>
<path d="M619.57 215.083C619.57 215.083 602.411 229.927 598.049 240.154C593.688 250.38 571.867 267.527 571.867 267.527" stroke="#535461" stroke-width="2" stroke-miterlimit="10"/>
<path d="M321.35 199.264V200.58H282.342V199.513C283.412 199.111 284.424 198.572 285.354 197.908C287.01 196.722 288.36 195.157 289.291 193.345C290.222 191.532 290.708 189.523 290.708 187.485C290.709 186.42 290.575 185.36 290.31 184.328C289.838 182.472 288.957 180.745 287.731 179.274C286.505 177.803 284.965 176.625 283.225 175.827H321.084C319.344 176.625 317.804 177.803 316.578 179.274C315.352 180.745 314.471 182.472 313.999 184.328C313.736 185.36 313.605 186.421 313.607 187.485C313.606 189.523 314.09 191.531 315.021 193.344C315.951 195.157 317.3 196.721 318.955 197.908C319.704 198.442 320.507 198.897 321.35 199.264Z" fill="#DFE6F5"/>
<path opacity="0.1" d="M321.084 175.827C319.344 176.625 317.804 177.803 316.578 179.274C315.352 180.745 314.471 182.472 313.999 184.328H290.31C289.838 182.472 288.957 180.745 287.731 179.274C286.505 177.803 284.965 176.625 283.225 175.827H321.084Z" fill="black"/>
<path d="M237.68 169.104V176.514C237.68 180.6 240.669 183.919 244.362 183.919H359.123C362.815 183.919 365.81 180.6 365.81 176.514V169.104H237.68Z" fill="#DFE6F5"/>
<path opacity="0.1" d="M321.35 199.264V200.58H282.342V199.513C283.412 199.111 284.424 198.572 285.354 197.908H318.955C319.704 198.442 320.507 198.897 321.35 199.264Z" fill="black"/>
<path d="M332.283 198.318H271.409C270.329 198.318 269.453 199.193 269.453 200.271C269.453 201.35 270.329 202.225 271.409 202.225H332.283C333.363 202.225 334.239 201.35 334.239 200.271C334.239 199.193 333.363 198.318 332.283 198.318Z" fill="#DFE6F5"/>
<path d="M365.81 87.9425C365.81 87.0644 365.637 86.1949 365.3 85.3837C364.964 84.5725 364.472 83.8355 363.851 83.2148C363.23 82.5941 362.493 82.102 361.681 81.7665C360.87 81.4309 360.001 81.2586 359.123 81.2594H244.362C243.484 81.2586 242.615 81.431 241.804 81.7666C240.993 82.1022 240.256 82.5944 239.636 83.2152C239.015 83.8359 238.523 84.5729 238.187 85.3841C237.852 86.1953 237.68 87.0647 237.68 87.9425V170.547H365.81V87.9425Z" fill="#474157"/>
<path d="M362.313 90.9263V161.913C362.314 162.345 362.23 162.774 362.065 163.173C361.9 163.573 361.658 163.937 361.352 164.243C361.047 164.549 360.684 164.792 360.284 164.957C359.885 165.123 359.457 165.208 359.025 165.208H244.465C244.033 165.208 243.605 165.123 243.206 164.957C242.806 164.792 242.443 164.549 242.138 164.243C241.833 163.937 241.59 163.573 241.425 163.173C241.261 162.774 241.176 162.345 241.177 161.913V90.9263C241.174 90.3487 241.325 89.7809 241.615 89.2815C241.904 88.7811 242.32 88.3656 242.82 88.0769C243.32 87.7881 243.888 87.6363 244.465 87.6367H359.025C359.897 87.6367 360.733 87.9832 361.35 88.6002C361.967 89.2171 362.313 90.0538 362.313 90.9263Z" fill="#4C4C78"/>
<path d="M301.745 85.986C302.596 85.986 303.285 85.2961 303.285 84.4451C303.285 83.5941 302.596 82.9042 301.745 82.9042C300.894 82.9042 300.205 83.5941 300.205 84.4451C300.205 85.2961 300.894 85.986 301.745 85.986Z" fill="white"/>
<path d="M301.745 180.623C303.845 180.623 305.547 178.92 305.547 176.82C305.547 174.719 303.845 173.017 301.745 173.017C299.645 173.017 297.943 174.719 297.943 176.82C297.943 178.92 299.645 180.623 301.745 180.623Z" fill="white"/>
<path d="M362.313 90.9263H241.188C241.188 90.0538 241.535 89.2171 242.152 88.6002C242.768 87.9832 243.605 87.6367 244.477 87.6367H359.025C359.897 87.6367 360.733 87.9832 361.35 88.6002C361.967 89.2171 362.313 90.0538 362.313 90.9263Z" fill="#C8CAD7"/>
<path d="M244.465 90.1067C244.921 90.1067 245.29 89.7372 245.29 89.2814C245.29 88.8256 244.921 88.4561 244.465 88.4561C244.01 88.4561 243.64 88.8256 243.64 89.2814C243.64 89.7372 244.01 90.1067 244.465 90.1067Z" fill="#EDEDF4"/>
<path d="M246.935 90.1067C247.39 90.1067 247.76 89.7372 247.76 89.2814C247.76 88.8256 247.39 88.4561 246.935 88.4561C246.479 88.4561 246.11 88.8256 246.11 89.2814C246.11 89.7372 246.479 90.1067 246.935 90.1067Z" fill="#EDEDF4"/>
<path d="M249.404 90.1067C249.86 90.1067 250.229 89.7372 250.229 89.2814C250.229 88.8256 249.86 88.4561 249.404 88.4561C248.948 88.4561 248.579 88.8256 248.579 89.2814C248.579 89.7372 248.948 90.1067 249.404 90.1067Z" fill="#EDEDF4"/>
</g>
<defs>
<linearGradient id="paint0_linear" x1="222.962" y1="269.945" x2="224.301" y2="269.945" gradientUnits="userSpaceOnUse">
<stop stop-color="#808080" stop-opacity="0.25"/>
<stop offset="0.54" stop-color="#808080" stop-opacity="0.12"/>
<stop offset="1" stop-color="#808080" stop-opacity="0.1"/>
</linearGradient>
<clipPath id="clip0">
<rect width="652" height="426" fill="white"/>
</clipPath>
</defs>
</svg>
