<svg width="236" height="149" viewBox="0 0 236 149" fill="none" xmlns="http://www.w3.org/2000/svg">
<g clip-path="url(#clip0)">
<path d="M202.603 120.455H25.5097C24.3008 120.454 23.1418 119.971 22.287 119.114C21.4322 118.256 20.9514 117.094 20.95 115.881V6.34615C20.951 5.45778 21.3032 4.60607 21.9295 3.97788C22.5557 3.34969 23.4048 2.99632 24.2905 2.9953H203.765C204.666 2.99633 205.529 3.3558 206.167 3.99484C206.804 4.63389 207.162 5.50034 207.163 6.40408V115.881C207.162 117.094 206.681 118.256 205.826 119.114C204.971 119.971 203.812 120.454 202.603 120.455Z" fill="#F2F2F2"/>
<path d="M196.143 114.809H31.0965C28.6771 114.809 26.7088 112.961 26.7088 110.688V15.3034C26.7088 13.6181 28.1674 12.2468 29.9602 12.2468H197.226C199.048 12.2468 200.531 13.6407 200.531 15.3538V110.688C200.531 112.961 198.562 114.809 196.143 114.809Z" fill="white"/>
<path d="M207.1 6.91611H20.886V4.58754C20.8878 3.3709 21.3706 2.20463 22.2285 1.3446C23.0864 0.484566 24.2494 0.00100442 25.4623 0H202.523C203.736 0.00099856 204.899 0.484556 205.757 1.34459C206.615 2.20462 207.098 3.3709 207.1 4.58754V6.91611Z" fill="#0DD5EB"/>
<path d="M29.2028 4.65228C29.8565 4.65228 30.3865 4.12069 30.3865 3.46493C30.3865 2.80918 29.8565 2.27759 29.2028 2.27759C28.549 2.27759 28.0191 2.80918 28.0191 3.46493C28.0191 4.12069 28.549 4.65228 29.2028 4.65228Z" fill="white"/>
<path d="M33.6959 4.65228C34.3496 4.65228 34.8796 4.12069 34.8796 3.46493C34.8796 2.80918 34.3496 2.27759 33.6959 2.27759C33.0421 2.27759 32.5121 2.80918 32.5121 3.46493C32.5121 4.12069 33.0421 4.65228 33.6959 4.65228Z" fill="white"/>
<path d="M38.1889 4.65228C38.8427 4.65228 39.3726 4.12069 39.3726 3.46493C39.3726 2.80918 38.8427 2.27759 38.1889 2.27759C37.5352 2.27759 37.0052 2.80918 37.0052 3.46493C37.0052 4.12069 37.5352 4.65228 38.1889 4.65228Z" fill="white"/>
<path d="M108.737 102.502H51.302C50.0199 102.501 48.7906 101.989 47.884 101.08C46.9774 100.17 46.4674 98.9374 46.4659 97.6513V28.0325C46.467 27.0706 46.8484 26.1484 47.5265 25.4683C48.2045 24.7881 49.1238 24.4055 50.0827 24.4044H109.899C110.873 24.4055 111.807 24.7942 112.496 25.4853C113.185 26.1763 113.572 27.1132 113.574 28.0904V97.6513C113.572 98.9374 113.062 100.17 112.155 101.08C111.249 101.989 110.02 102.501 108.737 102.502ZM50.0827 24.9588C49.2703 24.9597 48.4915 25.2839 47.9171 25.8601C47.3426 26.4363 47.0195 27.2176 47.0186 28.0325V97.6513C47.0199 98.7904 47.4716 99.8825 48.2746 100.688C49.0776 101.493 50.1664 101.947 51.302 101.948H108.737C109.873 101.947 110.962 101.493 111.765 100.688C112.568 99.8825 113.02 98.7904 113.021 97.6513V28.0904C113.02 27.2601 112.691 26.4642 112.105 25.8771C111.52 25.29 110.727 24.9598 109.899 24.9588H50.0827Z" fill="#CCCCCC"/>
<path d="M55.7236 97.6513H104.316C105.489 97.6513 106.613 97.1841 107.442 96.3523C108.272 95.5206 108.738 94.3925 108.738 93.2162V33.7444C108.738 32.5681 108.272 31.44 107.442 30.6083C106.613 29.7765 105.489 29.3092 104.316 29.3092H55.7236C54.5509 29.3092 53.4263 29.7765 52.5971 30.6083C51.7679 31.44 51.302 32.5681 51.302 33.7444V93.2162C51.302 94.3925 51.7679 95.5206 52.5971 96.3523C53.4263 97.1841 54.5509 97.6513 55.7236 97.6513Z" fill="#E6E6E6"/>
<path d="M93.4226 41.4432H66.6169C66.1405 41.4432 65.6837 41.2533 65.3468 40.9155C65.0099 40.5776 64.8207 40.1193 64.8207 39.6414C64.8207 39.1635 65.0099 38.7053 65.3468 38.3674C65.6837 38.0295 66.1405 37.8396 66.6169 37.8396H93.4226C93.8989 37.8396 94.3558 38.0295 94.6927 38.3674C95.0296 38.7053 95.2188 39.1635 95.2188 39.6414C95.2188 40.1193 95.0296 40.5776 94.6927 40.9155C94.3558 41.2533 93.8989 41.4432 93.4226 41.4432Z" fill="white"/>
<path d="M93.4226 80.5278H66.6169C66.1405 80.5278 65.6837 80.338 65.3468 80.0001C65.0099 79.6622 64.8207 79.2039 64.8207 78.7261C64.8207 78.2482 65.0099 77.7899 65.3468 77.452C65.6837 77.1141 66.1405 76.9243 66.6169 76.9243H93.4226C93.8989 76.9243 94.3558 77.1141 94.6927 77.452C95.0296 77.7899 95.2188 78.2482 95.2188 78.7261C95.2188 79.2039 95.0296 79.6622 94.6927 80.0001C94.3558 80.338 93.8989 80.5278 93.4226 80.5278Z" fill="white"/>
<path d="M93.4226 89.1209H66.6169C66.1405 89.1209 65.6837 88.9311 65.3468 88.5932C65.0099 88.2553 64.8207 87.797 64.8207 87.3191C64.8207 86.8413 65.0099 86.383 65.3468 86.0451C65.6837 85.7072 66.1405 85.5174 66.6169 85.5174H93.4226C93.8989 85.5174 94.3558 85.7072 94.6927 86.0451C95.0296 86.383 95.2188 86.8413 95.2188 87.3191C95.2188 87.797 95.0296 88.2553 94.6927 88.5932C94.3558 88.9311 93.8989 89.1209 93.4226 89.1209Z" fill="white"/>
<path d="M80.1579 67.9154C86.1102 67.9154 90.9354 63.0753 90.9354 57.1048C90.9354 51.1342 86.1102 46.2941 80.1579 46.2941C74.2057 46.2941 69.3804 51.1342 69.3804 57.1048C69.3804 63.0753 74.2057 67.9154 80.1579 67.9154Z" fill="white"/>
<path d="M149.489 47.1986L144.781 48.1946C144.739 48.2034 144.701 48.2216 144.667 48.2479C144.634 48.2742 144.607 48.3078 144.589 48.3461C144.57 48.3845 144.561 48.4265 144.562 48.469C144.562 48.5116 144.572 48.5534 144.591 48.5913L145.03 49.4582L123.739 60.2986C123.707 60.3151 123.678 60.3378 123.654 60.3654C123.631 60.3931 123.613 60.4251 123.602 60.4597C123.59 60.4943 123.586 60.5308 123.589 60.5671C123.592 60.6034 123.601 60.6388 123.618 60.6712C123.634 60.7037 123.657 60.7326 123.684 60.7562C123.712 60.7799 123.744 60.7979 123.778 60.8092C123.813 60.8205 123.849 60.8249 123.886 60.8221C123.922 60.8193 123.957 60.8094 123.989 60.7929L145.28 49.9525L145.719 50.8195C145.738 50.8574 145.766 50.8904 145.8 50.9159C145.834 50.9414 145.873 50.9587 145.915 50.9665C145.956 50.9743 145.999 50.9724 146.04 50.9609C146.081 50.9495 146.118 50.9287 146.15 50.9003L149.731 47.6761C149.776 47.6353 149.806 47.5807 149.818 47.5207C149.829 47.4607 149.82 47.3987 149.792 47.3443C149.765 47.2899 149.72 47.2461 149.665 47.2198C149.61 47.1934 149.548 47.186 149.489 47.1986Z" fill="#E6E6E6"/>
<path d="M149.489 74.1438L144.781 73.1478C144.739 73.139 144.701 73.1208 144.667 73.0945C144.634 73.0682 144.607 73.0346 144.589 72.9963C144.57 72.9579 144.561 72.9159 144.562 72.8734C144.562 72.8308 144.572 72.789 144.591 72.7511L145.03 71.8842L123.739 61.0438C123.707 61.0273 123.678 61.0046 123.654 60.977C123.631 60.9494 123.613 60.9173 123.602 60.8827C123.59 60.8481 123.586 60.8116 123.589 60.7753C123.592 60.739 123.601 60.7037 123.618 60.6712C123.634 60.6387 123.657 60.6099 123.684 60.5862C123.712 60.5625 123.744 60.5445 123.778 60.5332C123.813 60.5219 123.849 60.5175 123.886 60.5203C123.922 60.5231 123.957 60.533 123.989 60.5495L145.28 71.3899L145.719 70.5229C145.738 70.485 145.766 70.452 145.8 70.4265C145.834 70.401 145.873 70.3837 145.915 70.3759C145.956 70.3681 145.999 70.37 146.04 70.3815C146.081 70.3929 146.118 70.4137 146.15 70.4421L149.731 73.6663C149.776 73.7071 149.806 73.7617 149.818 73.8217C149.829 73.8816 149.82 73.9437 149.792 73.9981C149.765 74.0525 149.72 74.0963 149.665 74.1226C149.61 74.149 149.548 74.1564 149.489 74.1438Z" fill="#E6E6E6"/>
<path d="M165.007 53.3673C163.805 53.3673 162.629 53.0097 161.63 52.3396C160.63 51.6695 159.851 50.7171 159.39 49.6027C158.93 48.4884 158.81 47.2623 159.044 46.0793C159.279 44.8964 159.858 43.8097 160.708 42.9569C161.559 42.104 162.642 41.5232 163.821 41.2879C165 41.0526 166.223 41.1734 167.334 41.6349C168.445 42.0965 169.394 42.8781 170.062 43.881C170.73 44.8839 171.087 46.0629 171.087 47.269C171.085 48.8858 170.444 50.4359 169.304 51.5792C168.164 52.7224 166.619 53.3655 165.007 53.3673ZM165.007 41.7251C163.914 41.7251 162.846 42.0503 161.937 42.6594C161.028 43.2686 160.319 44.1344 159.901 45.1475C159.483 46.1605 159.373 47.2752 159.586 48.3506C159.8 49.426 160.326 50.4138 161.099 51.1892C161.872 51.9645 162.857 52.4925 163.929 52.7064C165.001 52.9203 166.112 52.8105 167.122 52.3909C168.132 51.9713 168.995 51.2608 169.603 50.3491C170.21 49.4374 170.534 48.3655 170.534 47.269C170.532 45.7992 169.95 44.3901 168.914 43.3507C167.877 42.3114 166.473 41.7268 165.007 41.7251Z" fill="#E6E6E6"/>
<path d="M165.007 80.2553C163.805 80.2553 162.629 79.8977 161.63 79.2276C160.63 78.5575 159.851 77.6051 159.39 76.4907C158.93 75.3764 158.81 74.1503 159.044 72.9673C159.279 71.7844 159.858 70.6977 160.708 69.8449C161.559 68.992 162.642 68.4112 163.821 68.1759C165 67.9406 166.223 68.0614 167.334 68.5229C168.445 68.9845 169.394 69.7661 170.062 70.769C170.73 71.7719 171.087 72.9509 171.087 74.157C171.085 75.7738 170.444 77.3239 169.304 78.4672C168.164 79.6104 166.619 80.2535 165.007 80.2553ZM165.007 68.6131C163.914 68.6131 162.846 68.9383 161.937 69.5474C161.028 70.1566 160.319 71.0224 159.901 72.0355C159.483 73.0485 159.373 74.1632 159.586 75.2386C159.8 76.314 160.326 77.3018 161.099 78.0772C161.872 78.8525 162.857 79.3805 163.929 79.5944C165.001 79.8083 166.112 79.6985 167.122 79.2789C168.132 78.8593 168.995 78.1488 169.603 77.2371C170.21 76.3254 170.534 75.2535 170.534 74.157C170.532 72.6872 169.95 71.2781 168.914 70.2387C167.877 69.1994 166.473 68.6148 165.007 68.6131Z" fill="#E6E6E6"/>
<path d="M164.525 50.274C164.35 50.2743 164.179 50.2173 164.038 50.1116L164.029 50.1051L162.194 48.6971C162.109 48.6317 162.038 48.5502 161.985 48.4572C161.931 48.3642 161.896 48.2615 161.882 48.1551C161.868 48.0486 161.875 47.9404 161.903 47.8366C161.931 47.7328 161.978 47.6355 162.043 47.5503C162.109 47.465 162.19 47.3935 162.283 47.3398C162.375 47.286 162.478 47.2511 162.584 47.237C162.69 47.223 162.798 47.23 162.901 47.2578C163.005 47.2855 163.102 47.3335 163.187 47.3988L164.375 48.313L167.184 44.6377C167.249 44.5525 167.33 44.4809 167.423 44.4272C167.516 44.3735 167.618 44.3386 167.724 44.3245C167.83 44.3105 167.938 44.3175 168.041 44.3453C168.145 44.373 168.242 44.4209 168.327 44.4863L168.327 44.4864L168.309 44.5107L168.327 44.4864C168.499 44.6186 168.611 44.8135 168.639 45.0284C168.667 45.2434 168.609 45.4608 168.478 45.633L165.175 49.9541C165.098 50.0537 165 50.1342 164.887 50.1895C164.775 50.2449 164.651 50.2734 164.526 50.2731L164.525 50.274Z" fill="#E6E6E6"/>
<path d="M162.369 76.8031C162.331 76.7645 162.3 76.7187 162.279 76.6683C162.259 76.6178 162.248 76.5637 162.248 76.5091C162.248 76.4545 162.259 76.4005 162.279 76.35C162.3 76.2996 162.331 76.2537 162.369 76.2151L167.059 71.511C167.137 71.4331 167.242 71.3893 167.352 71.3893C167.462 71.3894 167.567 71.4332 167.645 71.5111C167.723 71.5891 167.766 71.6948 167.766 71.805C167.766 71.9153 167.723 72.021 167.645 72.099L162.955 76.8031C162.917 76.8418 162.871 76.8724 162.821 76.8933C162.771 76.9142 162.717 76.9249 162.662 76.9249C162.608 76.9249 162.554 76.9142 162.504 76.8933C162.453 76.8724 162.408 76.8418 162.369 76.8031Z" fill="#E6E6E6"/>
<path d="M167.369 76.8031C167.407 76.7645 167.438 76.7187 167.459 76.6682C167.48 76.6178 167.49 76.5637 167.49 76.5091C167.49 76.4545 167.48 76.4004 167.459 76.35C167.438 76.2996 167.407 76.2537 167.369 76.2151L162.679 71.511C162.601 71.4331 162.496 71.3893 162.386 71.3893C162.276 71.3894 162.171 71.4332 162.093 71.5111C162.015 71.5891 161.972 71.6948 161.972 71.805C161.972 71.9153 162.015 72.021 162.093 72.099L166.783 76.8031C166.821 76.8417 166.867 76.8724 166.917 76.8933C166.967 76.9142 167.021 76.9249 167.076 76.9249C167.13 76.9249 167.184 76.9142 167.234 76.8933C167.285 76.8724 167.33 76.8417 167.369 76.8031Z" fill="#E6E6E6"/>
<path d="M175.505 60.8941C175.487 60.8941 175.469 60.8928 175.451 60.8902C175.404 60.8833 175.358 60.867 175.316 60.8423C175.275 60.8175 175.239 60.7847 175.21 60.7458L172.951 57.7072C172.941 57.6943 172.928 57.6842 172.914 57.6778C172.899 57.6715 172.883 57.6691 172.867 57.671C172.851 57.6729 172.836 57.6789 172.823 57.6885C172.81 57.6982 172.8 57.711 172.794 57.7257L171.636 60.4441C171.605 60.5148 171.554 60.5743 171.488 60.6143C171.423 60.6542 171.347 60.6725 171.27 60.6667C171.194 60.6609 171.121 60.6313 171.062 60.5819C171.003 60.5325 170.961 60.4659 170.942 60.3914L168.631 51.4172C168.612 51.3463 168.616 51.2716 168.64 51.2026C168.664 51.1336 168.708 51.0733 168.767 51.0296C168.825 50.9858 168.895 50.9606 168.968 50.957C169.041 50.9534 169.113 50.9716 169.176 51.0094L177.091 55.7924C177.156 55.8321 177.208 55.8914 177.238 55.962C177.269 56.0327 177.276 56.1111 177.26 56.1863C177.244 56.2614 177.204 56.3296 177.148 56.3812C177.091 56.4329 177.019 56.4654 176.943 56.4742L174.016 56.8118C174 56.8137 173.985 56.8197 173.972 56.8292C173.959 56.8388 173.949 56.8516 173.943 56.8664C173.937 56.8811 173.934 56.8973 173.936 56.9132C173.938 56.9292 173.944 56.9443 173.954 56.9572L176.213 59.9957C176.271 60.0741 176.295 60.1724 176.281 60.2691C176.267 60.3658 176.216 60.453 176.138 60.5115L175.724 60.8209C175.661 60.8684 175.584 60.8941 175.505 60.8941Z" fill="#0DD5EB"/>
<path d="M188.358 67.5043H178.41C177.677 67.5043 176.974 67.2123 176.456 66.6925C175.938 66.1726 175.647 65.4675 175.647 64.7324C175.647 63.9972 175.938 63.2922 176.456 62.7723C176.974 62.2525 177.677 61.9604 178.41 61.9604H188.358C189.091 61.9604 189.794 62.2525 190.313 62.7723C190.831 63.2922 191.122 63.9972 191.122 64.7324C191.122 65.4675 190.831 66.1726 190.313 66.6925C189.794 67.2123 189.091 67.5043 188.358 67.5043Z" fill="#0DD5EB"/>
<path d="M67.794 48.3471L67.3803 48.0377C67.3023 47.9791 67.2506 47.892 67.2366 47.7953C67.2225 47.6986 67.2473 47.6003 67.3054 47.5218L69.5644 44.4834C69.574 44.4705 69.58 44.4553 69.5818 44.4394C69.5837 44.4234 69.5813 44.4073 69.575 44.3925C69.5686 44.3778 69.5585 44.365 69.5457 44.3554C69.5328 44.3459 69.5177 44.3398 69.5018 44.338L66.5749 44.0003C66.4987 43.9915 66.4272 43.959 66.3703 43.9074C66.3135 43.8558 66.2741 43.7876 66.2579 43.7124C66.2416 43.6373 66.2492 43.5588 66.2795 43.4882C66.3099 43.4176 66.3616 43.3583 66.4273 43.3186L74.342 38.5356C74.4045 38.4978 74.4768 38.4795 74.5497 38.4831C74.6225 38.4867 74.6927 38.512 74.7512 38.5558C74.8097 38.5995 74.8539 38.6597 74.8781 38.7288C74.9024 38.7978 74.9056 38.8725 74.8873 38.9434L72.5759 47.9176C72.5567 47.9921 72.5148 48.0587 72.4559 48.1081C72.3971 48.1574 72.3244 48.1871 72.2479 48.1929C72.1714 48.1987 72.095 48.1804 72.0295 48.1404C71.9639 48.1005 71.9125 48.041 71.8823 47.9703L70.724 45.2519C70.7177 45.2371 70.7076 45.2243 70.6948 45.2147C70.6819 45.2051 70.6668 45.1991 70.6509 45.1972C70.6351 45.1953 70.619 45.1977 70.6043 45.204C70.5896 45.2104 70.5768 45.2205 70.5672 45.2333L68.3081 48.2719C68.2794 48.3108 68.2433 48.3436 68.2018 48.3684C68.1603 48.3932 68.1144 48.4095 68.0666 48.4164C68.0488 48.4189 68.0309 48.4203 68.0129 48.4203C67.934 48.4203 67.8572 48.3946 67.794 48.3471Z" fill="#3F3D56"/>
<path d="M52.396 52.2585C52.3968 51.5236 52.6882 50.819 53.2063 50.2994C53.7244 49.7797 54.4268 49.4874 55.1594 49.4866H65.1079C65.8408 49.4866 66.5437 49.7786 67.062 50.2985C67.5802 50.8183 67.8714 51.5234 67.8714 52.2585C67.8714 52.9937 67.5802 53.6988 67.062 54.2186C66.5437 54.7385 65.8408 55.0305 65.1079 55.0305H55.1594C54.4268 55.0297 53.7244 54.7374 53.2063 54.2177C52.6882 53.698 52.3968 52.9935 52.396 52.2585Z" fill="#3F3D56"/>
<path d="M199.896 102.506C200.195 102.231 200.431 101.893 200.586 101.516C200.741 101.14 200.812 100.733 200.794 100.326C200.775 99.9192 200.668 99.5211 200.48 99.16C200.292 98.7989 200.027 98.4835 199.704 98.2362L202.794 88.8279L197.841 90.175L195.666 98.9028C195.288 99.4744 195.132 100.165 195.228 100.845C195.323 101.524 195.664 102.145 196.185 102.589C196.707 103.033 197.372 103.27 198.056 103.255C198.74 103.239 199.395 102.973 199.896 102.506Z" fill="#A0616A"/>
<path d="M229.604 101.952C229.304 101.676 229.069 101.338 228.913 100.962C228.758 100.585 228.687 100.179 228.705 99.7719C228.724 99.3648 228.831 98.9667 229.019 98.6056C229.207 98.2444 229.472 97.9291 229.795 97.6818L226.705 88.2735L231.658 89.6206L233.833 98.3484C234.211 98.92 234.367 99.6109 234.271 100.29C234.176 100.97 233.835 101.59 233.314 102.034C232.792 102.478 232.127 102.715 231.443 102.7C230.759 102.685 230.105 102.419 229.604 101.952Z" fill="#A0616A"/>
<path d="M215.087 54.954C218.835 54.954 221.874 51.9058 221.874 48.1457C221.874 44.3857 218.835 41.3375 215.087 41.3375C211.338 41.3375 208.3 44.3857 208.3 48.1457C208.3 51.9058 211.338 54.954 215.087 54.954Z" fill="#A0616A"/>
<path d="M208.68 145.627H205.292L203.68 132.519H208.681L208.68 145.627Z" fill="#A0616A"/>
<path d="M209.544 148.922L198.62 148.921V148.783C198.62 148.223 198.73 147.668 198.943 147.151C199.157 146.633 199.47 146.163 199.865 145.767C200.26 145.371 200.729 145.057 201.245 144.842C201.761 144.628 202.313 144.518 202.872 144.518H202.872L209.544 144.518L209.544 148.922Z" fill="#2F2E41"/>
<path d="M220.286 145.627H216.899L215.287 132.519H220.287L220.286 145.627Z" fill="#A0616A"/>
<path d="M221.15 148.922L210.226 148.921V148.783C210.226 148.223 210.336 147.668 210.55 147.151C210.764 146.633 211.077 146.163 211.472 145.767C211.867 145.371 212.335 145.057 212.851 144.842C213.367 144.628 213.92 144.518 214.478 144.518H214.479L221.151 144.518L221.15 148.922Z" fill="#2F2E41"/>
<path d="M208.625 141.796L204.645 141.785C204.474 141.807 204.301 141.793 204.136 141.743C203.972 141.693 203.819 141.609 203.689 141.497C203.556 141.383 203.448 141.242 203.373 141.083C203.298 140.925 203.257 140.752 203.253 140.576L203.711 96.398L222.076 96.2139L221.011 140.251C221.005 140.577 220.871 140.887 220.638 141.115C220.406 141.343 220.093 141.47 219.768 141.468H215.664C215.342 141.469 215.032 141.344 214.8 141.12C214.568 140.896 214.432 140.59 214.421 140.268L213.428 113.837C213.428 113.819 213.425 113.801 213.418 113.785C213.412 113.768 213.401 113.753 213.389 113.741C213.376 113.729 213.361 113.719 213.344 113.712C213.328 113.706 213.31 113.703 213.292 113.704C213.257 113.702 213.222 113.715 213.196 113.74C213.17 113.764 213.154 113.797 213.152 113.833L209.696 140.653C209.675 140.938 209.557 141.206 209.362 141.415C209.167 141.623 208.907 141.757 208.625 141.796Z" fill="#2F2E41"/>
<path d="M212.051 99.4076C209.337 99.4076 206.47 98.9214 203.881 97.4997C203.688 97.3936 203.525 97.2381 203.411 97.049C203.296 96.8598 203.233 96.6436 203.229 96.4223L202.867 76.2596L202.357 71.9452C202.052 69.3788 202.508 66.7791 203.668 64.4712C204.827 62.1633 206.64 60.2497 208.879 58.9697L209.114 58.8352L209.777 57.2838C209.831 57.1556 209.922 57.0469 210.039 56.9719C210.156 56.897 210.293 56.8595 210.431 56.8642L219.341 57.1195C219.483 57.124 219.62 57.1718 219.733 57.2564C219.847 57.3411 219.932 57.4586 219.977 57.5932L220.391 58.8387C222.678 60.1555 224.513 62.1365 225.655 64.5207C226.796 66.9049 227.19 69.5802 226.785 72.1937L223.133 96.4397C223.1 96.6578 223.01 96.8634 222.872 97.0353C222.735 97.2072 222.554 97.3394 222.348 97.4182C220.732 98.0341 216.61 99.4076 212.051 99.4076Z" fill="#3F3D56"/>
<path d="M229.463 96.6735C229.323 96.6734 229.187 96.631 229.072 96.5519C228.957 96.4729 228.868 96.3608 228.817 96.2304L224.293 84.4845L220.593 66.1849C220.453 65.4945 220.518 64.7781 220.779 64.1243C221.041 63.4704 221.488 62.9077 222.064 62.5056C222.563 62.1579 223.14 61.9423 223.744 61.8789C224.347 61.8154 224.957 61.9061 225.516 62.1425C226.076 62.379 226.566 62.7535 226.942 63.2312C227.318 63.7089 227.568 64.2743 227.668 64.8747L228.703 71.1062L233.838 94.9611C233.875 95.1385 233.842 95.3235 233.746 95.4767C233.649 95.63 233.497 95.7393 233.321 95.7816L229.62 96.6551C229.568 96.6674 229.516 96.6736 229.463 96.6735Z" fill="#3F3D56"/>
<path d="M200.313 96.6735C200.26 96.6736 200.207 96.6674 200.155 96.6551L196.455 95.7816C196.279 95.7393 196.126 95.6299 196.03 95.4767C195.933 95.3235 195.9 95.1385 195.937 94.9611L201.074 71.0998L202.108 64.8748C202.207 64.2743 202.457 63.7089 202.833 63.2312C203.209 62.7535 203.7 62.379 204.259 62.1425C204.818 61.9061 205.428 61.8154 206.032 61.8789C206.635 61.9423 207.213 62.1579 207.711 62.5056C208.288 62.9077 208.735 63.4704 208.996 64.1243C209.258 64.7781 209.322 65.4945 209.183 66.1849L205.489 84.462L200.958 96.2307C200.908 96.361 200.819 96.473 200.704 96.552C200.588 96.631 200.452 96.6734 200.313 96.6735Z" fill="#3F3D56"/>
<path d="M220.37 54.6406C219.741 55.0033 217.257 55.2438 217.081 54.5385L217.077 54.523C216.954 54.0063 217.056 53.4667 217.091 52.9366C217.127 52.4065 217.075 51.8241 216.715 51.4344C216.044 50.7078 214.85 51.093 213.88 50.9093C213.312 50.782 212.809 50.4514 212.466 49.9793C212.123 49.5072 211.964 48.926 212.017 48.3444C212.031 48.2342 212.053 48.1239 212.077 48.0137C212.138 47.7343 212.133 47.4447 212.063 47.1675C211.994 46.8903 211.861 46.6331 211.676 46.416C211.49 46.199 211.257 46.028 210.995 45.9165C210.732 45.8051 210.447 45.7561 210.163 45.7735C209.182 45.8298 208.124 46.1278 207.313 45.3993C206.686 44.836 206.532 43.3696 206.808 42.5715C207.271 41.2304 210.239 40.5283 211.534 40.1423C213.136 39.6779 214.822 39.5775 216.468 39.8484C218.114 40.1193 219.679 40.7546 221.049 41.7083C221.867 42.2869 222.631 43.0139 222.98 43.9552C223.329 44.8965 223.161 46.0841 222.374 46.7055C222.984 47.353 223.413 48.1498 223.619 49.0161C223.825 49.8823 223.8 50.7877 223.548 51.6414C223.159 52.897 221.305 54.1007 220.37 54.6406Z" fill="#2F2E41"/>
<path d="M31.3844 92.3366C30.9801 92.2958 30.5898 92.1666 30.2407 91.9582C29.8916 91.7497 29.5924 91.467 29.3641 91.1299C29.1357 90.7929 28.9838 90.4097 28.9191 90.0074C28.8543 89.6051 28.8783 89.1935 28.9893 88.8015L20.8995 83.1207L25.6707 81.2256L32.6215 86.9107C33.2656 87.1414 33.803 87.6011 34.1318 88.2027C34.4606 88.8043 34.558 89.506 34.4055 90.1748C34.2531 90.8436 33.8613 91.4331 33.3045 91.8315C32.7476 92.23 32.0645 92.4097 31.3844 92.3366Z" fill="#FFB8B8"/>
<path d="M26.9912 88.0184L19.665 83.7562C18.9289 83.3389 18.2874 82.7725 17.7814 82.0931C17.2753 81.4137 16.9157 80.6361 16.7254 79.8097C16.5536 79.0278 16.5433 78.219 16.6952 77.433C16.8471 76.647 17.158 75.9005 17.6087 75.2397L23.6735 66.2666C24.1025 65.6318 24.7548 65.183 25.4997 65.0102C26.2446 64.8374 27.0271 64.9533 27.6904 65.3348C28.3537 65.7162 28.8488 66.335 29.0765 67.0671C29.3042 67.7992 29.2477 68.5906 28.9183 69.2827L24.1825 79.2355L28.98 83.4728C29.1459 83.6195 29.2698 83.808 29.339 84.0187C29.4082 84.2294 29.4203 84.4548 29.3739 84.6717L28.8307 87.2017C28.7905 87.3945 28.7048 87.5748 28.5808 87.7275C28.4569 87.8803 28.2983 88.0011 28.1183 88.0799C27.9391 88.1605 27.7434 88.197 27.5473 88.1863C27.3512 88.1756 27.1605 88.1181 26.9912 88.0184L26.9912 88.0184Z" fill="#3F3D56"/>
<path d="M60.1868 68.0793C60.0639 68.4677 59.8576 68.8244 59.5824 69.1241C59.3072 69.4239 58.9698 69.6595 58.5941 69.8143C58.2183 69.9692 57.8132 70.0395 57.4074 70.0203C57.0016 70.0011 56.6049 69.8929 56.2453 69.7033L49.0392 76.4762L48.1715 71.4029L55.1476 65.749C55.5052 65.1642 56.0642 64.7312 56.7188 64.5321C57.3733 64.3331 58.0779 64.3818 58.6991 64.669C59.3202 64.9563 59.8148 65.4621 60.089 66.0906C60.3632 66.7191 60.398 67.4267 60.1868 68.0793Z" fill="#FFB8B8"/>
<path d="M30.6722 59.1883C34.4207 59.1883 37.4595 56.1401 37.4595 52.3801C37.4595 48.62 34.4207 45.5718 30.6722 45.5718C26.9236 45.5718 23.8848 48.62 23.8848 52.3801C23.8848 56.1401 26.9236 59.1883 30.6722 59.1883Z" fill="#FFB8B8"/>
<path d="M50.6566 145.517L53.9039 144.548L51.7224 131.523L46.9297 132.954L50.6566 145.517Z" fill="#FFB8B8"/>
<path d="M49.5129 144.701L55.9078 142.792L55.9081 142.792C56.4433 142.632 57.0046 142.58 57.56 142.638C58.1154 142.696 58.654 142.863 59.145 143.129C59.636 143.396 60.0699 143.757 60.4218 144.192C60.7737 144.627 61.0368 145.127 61.196 145.664L61.2354 145.797L50.7649 148.922L49.5129 144.701Z" fill="#2F2E41"/>
<path d="M15.0802 145.35H18.468L20.0799 132.242H16.7378L15.0802 145.35Z" fill="#FFB8B8"/>
<path d="M14.2159 144.241L20.888 144.24H20.8883C21.4467 144.24 21.9996 144.351 22.5154 144.565C23.0313 144.779 23.5001 145.094 23.8949 145.49C24.2897 145.886 24.6029 146.356 24.8166 146.873C25.0303 147.391 25.1403 147.945 25.1403 148.505V148.644L14.2161 148.644L14.2159 144.241Z" fill="#2F2E41"/>
<path d="M48.2327 140.826L35.5246 104.145C35.4979 104.064 35.4467 103.994 35.3782 103.944C35.3097 103.894 35.2273 103.867 35.1426 103.866C35.0576 103.861 34.9733 103.884 34.9023 103.931C34.8313 103.978 34.7772 104.047 34.7482 104.127L20.1049 140.847C20.0095 141.088 19.8409 141.294 19.623 141.434C19.405 141.575 19.1486 141.643 18.89 141.629L15.0679 141.443C14.8839 141.434 14.7041 141.385 14.5416 141.297C14.3792 141.21 14.238 141.088 14.1285 140.939C14.0189 140.791 13.9436 140.619 13.9081 140.438C13.8725 140.257 13.8776 140.07 13.9229 139.891L27.7743 85.1322L41.6709 83.9947L41.7617 84.126C41.8368 84.2348 49.2722 95.2146 49.2676 114.171L54.0321 140.191C54.0651 140.37 54.0582 140.555 54.0119 140.732C53.9657 140.909 53.8812 141.074 53.7645 141.214C53.6478 141.355 53.5017 141.468 53.3366 141.546C53.1715 141.623 52.9914 141.663 52.8091 141.663H49.4074C49.1491 141.663 48.8973 141.583 48.6868 141.432C48.4763 141.282 48.3176 141.07 48.2327 140.826Z" fill="#2F2E41"/>
<path d="M22.8209 72.712C22.332 71.3078 22.2113 69.801 22.4705 68.3365C22.7296 66.872 23.3598 65.4989 24.3006 64.3493C25.2196 63.2061 26.4161 62.3191 27.7753 61.7735C29.1344 61.2279 30.6106 61.0419 32.0621 61.2335C32.1773 61.2489 32.2917 61.2646 32.4054 61.2803C34.253 61.5306 35.9704 62.3734 37.3013 63.683C38.6321 64.9926 39.5051 66.6989 39.7899 68.547L42.3852 85.1038L27.5894 86.2239L27.4832 86.2318L22.8209 72.712Z" fill="#3F3D56"/>
<path d="M44.4117 79.4302C43.602 79.4024 42.807 79.2059 42.0771 78.8533C41.3472 78.5008 40.6984 77.9997 40.1719 77.3821L33.173 69.2438C32.63 68.6336 32.3459 67.8349 32.3813 67.0178C32.4031 66.5907 32.5154 66.1731 32.7107 65.7929C32.9061 65.4127 33.18 65.0786 33.5141 64.813C34.0657 64.3713 34.7534 64.1362 35.4591 64.1481C36.1647 64.1601 36.8442 64.4183 37.3805 64.8785L45.7273 72.0539L50.8624 68.4707C51.0466 68.342 51.2621 68.2658 51.486 68.2501C51.71 68.2345 51.934 68.28 52.1342 68.3819L54.5919 69.6298C54.7675 69.719 54.9195 69.8488 55.0354 70.0085C55.1513 70.1681 55.2277 70.3531 55.2584 70.5482C55.2892 70.7432 55.2733 70.9428 55.2121 71.1305C55.1509 71.3182 55.0461 71.4887 54.9064 71.6278L48.7956 77.7156C48.2509 78.2619 47.6041 78.6949 46.8923 78.9899C46.1804 79.2849 45.4175 79.436 44.6473 79.4345C44.569 79.4345 44.4905 79.4331 44.4117 79.4302Z" fill="#3F3D56"/>
<path d="M35.8334 50.6797C36.6785 51.0086 37.5691 51.2051 38.4737 51.2625C39.3837 51.2739 40.351 50.9578 40.8489 50.2626C41.0399 49.959 41.1633 49.6175 41.2104 49.2615C41.2576 48.9056 41.2275 48.5437 41.1222 48.2005C40.9336 47.5048 40.5943 46.8594 40.1285 46.3105C39.6626 45.7615 39.0817 45.3224 38.4271 45.0246C37.7394 44.7117 36.9967 44.5381 36.2419 44.5137C35.4871 44.4893 34.7348 44.6147 34.0284 44.8826C33.5177 43.3254 31.5943 42.4779 29.814 42.43C26.1774 42.3321 22.9257 44.8194 21.3457 47.8103C19.7656 50.8011 19.5348 54.2199 19.4366 57.539C19.4126 58.3485 19.4026 59.1925 19.7848 59.9233C20.354 61.0115 21.6476 61.5975 22.8668 62.0622C26.0639 63.279 29.3624 64.209 32.7233 64.8414C31.1095 63.8067 30.5977 61.5798 31.6198 60.0406C32.1199 59.2875 32.9411 58.6605 33.074 57.7883C33.2333 56.7424 32.3437 55.8278 32.0146 54.8156C31.8483 54.2675 31.8408 53.6834 31.9929 53.1312C32.1451 52.5791 32.4506 52.0817 32.8738 51.6971C33.3345 51.2957 33.8853 51.0122 34.4791 50.871C35.0729 50.7297 35.692 50.7349 36.2833 50.8861" fill="#2F2E41"/>
<path d="M68.8103 149H0.276347C0.203055 149 0.132765 148.971 0.0809398 148.919C0.0291148 148.867 0 148.796 0 148.723C0 148.649 0.0291148 148.579 0.0809398 148.527C0.132765 148.475 0.203055 148.446 0.276347 148.446H68.8103C68.8836 148.446 68.9539 148.475 69.0057 148.527C69.0575 148.579 69.0867 148.649 69.0867 148.723C69.0867 148.796 69.0575 148.867 69.0057 148.919C68.9539 148.971 68.8836 149 68.8103 149Z" fill="#CCCCCC"/>
<path d="M235.724 149H187.087C187.013 149 186.943 148.971 186.891 148.919C186.839 148.867 186.81 148.796 186.81 148.723C186.81 148.649 186.839 148.579 186.891 148.527C186.943 148.475 187.013 148.446 187.087 148.446H235.724C235.797 148.446 235.867 148.475 235.919 148.527C235.971 148.579 236 148.649 236 148.723C236 148.796 235.971 148.867 235.919 148.919C235.867 148.971 235.797 149 235.724 149Z" fill="#CCCCCC"/>
</g>
<defs>
<clipPath id="clip0">
<rect width="236" height="149" fill="white"/>
</clipPath>
</defs>
</svg>
